{"asset":{"version":"2.0","generator":"THREE.GLTFExporter r167"},"scenes":[{"nodes":[1,3,4,5,6,7,8,9,10,11,12,13,14,15,16,17,18,19,20,21,22,23,24,25,26,27,28,29,30,31,32,33,34,35,36,37,38,39,40,41,42,43,44,45,46,47,48,49,50,51,52,53,54,55,56,57,58]}],"scene":0,"nodes":[{"matrix":[1,0,0,0,0,1,0,0,0,0,1,0,0,0,-1,1]},{"matrix":[1,0,0,0,0,1,0,0,0,0,1,0,24,36,16,1],"children":[0],"extensions":{"KHR_lights_punctual":{"light":0}}},{"matrix":[1,0,0,0,0,1,0,0,0,0,1,0,0,0,-1,1]},{"matrix":[1,0,0,0,0,1,0,0,0,0,1,0,-18,22,-14,1],"children":[2],"extensions":{"KHR_lights_punctual":{"light":1}}},{"matrix":[1,0,0,0,0,2.220446049250313e-16,-1,0,0,1,2.220446049250313e-16,0,0,-1.25,0,1],"mesh":0},{"matrix":[1.2,0,0,0,0,1.5764636130313705,0,0,0,0,1.2,0,164.83044000920617,8.461015856273244,0,1],"mesh":1},{"matrix":[1.2,0,0,0,0,1.6374484218278547,0,0,0,0,1.2,0,136.88995351432442,8.836682278459586,31.24423859921552,1],"mesh":2},{"matrix":[1.2,0,0,0,0,2.143933444719577,0,0,0,0,1.2,0,150.41517937375482,11.956630019472595,72.43613266978203,1],"mesh":3},{"matrix":[1.2,0,0,0,0,2.393525973371501,0,0,0,0,1.2,0,137.54977797445594,13.494119995968447,109.69228758131162,1],"mesh":4},{"matrix":[1.2,0,0,0,0,2.2673883477467465,0,0,0,0,1.2,0,110.54701374962987,12.71711222211996,138.62157068908942,1],"mesh":5},{"matrix":[1.2,0,0,0,0,1.4189475617415614,0,0,0,0,1.2,0,58.043837132367116,7.4907169803280205,120.5292697445202,1],"mesh":6},{"matrix":[1.2,0,0,0,0,1.168038108086561,0,0,0,0,1.2,0,36.595787342081465,5.945114745813217,160.33662053148618,1],"mesh":7},{"matrix":[1.2,0,0,0,0,2.2737735154702308,0,0,0,0,1.2,0,1.0874268661978365e-14,12.756444855296623,177.59028430972023,1],"mesh":8},{"matrix":[1.2,0,0,0,0,1.9867147604946274,0,0,0,0,1.2,0,-33.32436231725453,10.988162924646906,146.00357099494227,1],"mesh":9},{"matrix":[1.2,0,0,0,0,2.3718128299825305,0,0,0,0,1.2,0,-50.52215796129884,13.360367032692388,104.91034200764447,1],"mesh":10},{"matrix":[1.2,0,0,0,0,1.3936026997256692,0,0,0,0,1.2,0,-91.15682556197237,7.334592630310123,114.30704376195109,1],"mesh":11},{"matrix":[1.2,0,0,0,0,2.4823987379904326,0,0,0,0,1.2,0,-131.66065974523974,14.041576226021068,104.99587250952946,1],"mesh":12},{"matrix":[1.2,0,0,0,0,1.800241524285947,0,0,0,0,1.2,0,-154.72270139550358,9.839487789601435,74.51052594541073,1],"mesh":13},{"matrix":[1.2,0,0,0,0,1.1980733672956767,0,0,0,0,1.2,0,-115.5118194158108,6.130131942541369,26.36481899659225,1],"mesh":14},{"matrix":[1.2,0,0,0,0,1.9919834206158427,0,0,0,0,1.2,0,-126.82798150620144,11.020617870993592,1.553194815938893e-14,1],"mesh":15},{"matrix":[1.2,0,0,0,0,2.1863633106600235,0,0,0,0,1.2,0,-156.9401934703586,12.217997993665747,-35.820575029136954,1],"mesh":16},{"matrix":[1.2,0,0,0,0,2.1809050960845138,0,0,0,0,1.2,0,-150.0739484707078,12.184375391880605,-72.27180452772178,1],"mesh":17},{"matrix":[1.2,0,0,0,0,1.498373372850307,0,0,0,0,1.2,0,-106.43922440159562,7.9799799767578925,-84.88244899355503,1],"mesh":18},{"matrix":[1.2,0,0,0,0,2.206446983116402,0,0,0,0,1.2,0,-104.1129793340201,12.341713415997038,-130.55354672075788,1],"mesh":19},{"matrix":[1.2,0,0,0,0,2.3887439604526084,0,0,0,0,1.2,0,-74.31602413663222,13.46466279638807,-154.31881422790295,1],"mesh":20},{"matrix":[1.2,0,0,0,0,1.065597898172756,0,0,0,0,1.2,0,-39.12488200153406,5.314083052744178,-171.41730823224142,1],"mesh":21},{"matrix":[1.2,0,0,0,0,2.0106084651380756,0,0,0,0,1.2,0,-2.50187032850813e-14,11.135348145250546,-136.19547721841266,1],"mesh":22},{"matrix":[1.2,0,0,0,0,1.0453524290774288,0,0,0,0,1.2,0,37.318272987135245,5.189370963116962,-163.50203696665153,1],"mesh":23},{"matrix":[1.2,0,0,0,0,2.3491870162085937,0,0,0,0,1.2,0,66.38515470433478,13.220992019844939,-137.85019415831596,1],"mesh":24},{"matrix":[1.2,0,0,0,0,1.7301683199852675,0,0,0,0,1.2,0,95.77576656850398,9.407836851109248,-120.0990125861456,1],"mesh":25},{"matrix":[1.2,0,0,0,0,1.2121984103172634,0,0,0,0,1.2,0,101.90136684776752,6.2171422075543425,-81.26362835183825,1],"mesh":26},{"matrix":[1.2,0,0,0,0,1.884423858184043,0,0,0,0,1.2,0,139.45669312223225,10.358050966413705,-67.15880383049753,1],"mesh":27},{"matrix":[1.2,0,0,0,0,2.5498175002348353,0,0,0,0,1.2,0,138.36862899943387,14.456875801446587,-31.581736629432477,1],"mesh":28},{"matrix":[1,0,0,0,0,1,0,0,0,0,1,0,22.972410693945893,0.37489165628209986,2.0427172251877255,1],"mesh":29},{"matrix":[1,0,0,0,0,1,0,0,0,0,1,0,-56.99476830573585,2.67399754626071,-24.098004461586697,1],"mesh":30},{"matrix":[1,0,0,0,0,1,0,0,0,0,1,0,21.918838293399013,0.31269451473203835,-52.022071457897916,1],"mesh":31},{"matrix":[1,0,0,0,0,1,0,0,0,0,1,0,-25.523924693186384,1.9095085828587197,17.85406916307813,1],"mesh":32},{"matrix":[1,0,0,0,0,1,0,0,0,0,1,0,20.837187702664462,1.266293246524011,19.750859135325953,1],"mesh":33},{"matrix":[1,0,0,0,0,1,0,0,0,0,1,0,-18.666913073657607,1.8525093291775576,-63.47788329116134,1],"mesh":34},{"matrix":[1,0,0,0,0,1,0,0,0,0,1,0,-40.361418133007554,2.6882214661660186,-61.827873265841674,1],"mesh":35},{"matrix":[1,0,0,0,0,1,0,0,0,0,1,0,17.000085373241202,0.5450468442973324,-25.4780252960822,1],"mesh":36},{"matrix":[1,0,0,0,0,1,0,0,0,0,1,0,-18.507830283710735,2.1859992646346793,-24.377446445918753,1],"mesh":37},{"matrix":[1,0,0,0,0,1,0,0,0,0,1,0,-19.361604779054623,2.6708402278765195,12.202985855812218,1],"mesh":38},{"matrix":[1,0,0,0,0,1,0,0,0,0,1,0,37.91947982771774,1.0401073012361555,-69.81005592945667,1],"mesh":39},{"matrix":[1,0,0,0,0,1,0,0,0,0,1,0,33.89902598857849,2.662808539802862,-5.338770462441349,1],"mesh":40},{"matrix":[1,0,0,0,0,1,0,0,0,0,1,0,-34.630894959932,2.0462711964143137,-35.53385869155693,1],"mesh":41},{"matrix":[1,0,0,0,0,1,0,0,0,0,1,0,-27.341944673675883,2.3589568821850597,-26.602908478710187,1],"mesh":42},{"matrix":[1,0,0,0,0,1,0,0,0,0,1,0,28.400406136106408,0.7925542726396944,-47.65513251974211,1],"mesh":43},{"matrix":[1,0,0,0,0,1,0,0,0,0,1,0,-13.460870044891678,1.9829389888055013,-23.134767628206827,1],"mesh":44},{"matrix":[1,0,0,0,0,1,0,0,0,0,1,0,60.179104866848895,0.4688660722619078,-22.45399643085131,1],"mesh":45},{"matrix":[1,0,0,0,0,1,0,0,0,0,1,0,64.19485563046061,0.6267865648322708,-12.451825432327677,1],"mesh":46},{"matrix":[1,0,0,0,0,1,0,0,0,0,1,0,21.564743923128834,2.21547843802615,-70.50437271045439,1],"mesh":47},{"matrix":[1,0,0,0,0,1,0,0,0,0,1,0,-3.616308359622322,1.1488424849810177,42.42171860985718,1],"mesh":48},{"matrix":[1,0,0,0,0,1,0,0,0,0,1,0,26.473951627446716,2.623000335489167,-3.4678318154961216,1],"mesh":49},{"matrix":[1,0,0,0,0,1,0,0,0,0,1,0,-50.094860796713505,0.5448568300914152,1.3881853255369112,1],"mesh":50},{"matrix":[1,0,0,0,0,1,0,0,0,0,1,0,-29.151513517412365,1.4739969649291589,6.450221747746737,1],"mesh":51},{"matrix":[1,0,0,0,0,1,0,0,0,0,1,0,73.44410270852525,1.8795016298954144,-13.372682360480452,1],"mesh":52},{"matrix":[1,0,0,0,0,1,0,0,0,0,1,0,49.91288632099749,2.5410480806233937,-2.6169084811278545,1],"mesh":53},{"matrix":[1,0,0,0,0,1,0,0,0,0,1,0,-20.325406016423972,1.454232035566641,-14.989367862989562,1],"mesh":54}],"extensions":{"KHR_lights_punctual":{"lights":[{"color":[1,0.8631572134510892,0.6724431569510133],"intensity":1.3,"type":"directional"},{"color":[0.6795424696265424,0.7991027380100881,1],"intensity":0.4,"type":"directional"}]}},"bufferViews":[{"buffer":0,"byteOffset":0,"byteLength":112908,"target":34962,"byteStride":12},{"buffer":0,"byteOffset":112908,"byteLength":112908,"target":34962,"byteStride":12},{"buffer":0,"byteOffset":225816,"byteLength":75272,"target":34962,"byteStride":8},{"buffer":0,"byteOffset":301088,"byteLength":110592,"target":34963},{"buffer":0,"byteOffset":411680,"byteLength":2880,"target":34962,"byteStride":12},{"buffer":0,"byteOffset":414560,"byteLength":2880,"target":34962,"byteStride":12},{"buffer":0,"byteOffset":417440,"byteLength":1920,"target":34962,"byteStride":8},{"buffer":0,"byteOffset":419360,"byteLength":2880,"target":34962,"byteStride":12},{"buffer":0,"byteOffset":422240,"byteLength":2880,"target":34962,"byteStride":12},{"buffer":0,"byteOffset":425120,"byteLength":1920,"target":34962,"byteStride":8},{"buffer":0,"byteOffset":427040,"byteLength":2880,"target":34962,"byteStride":12},{"buffer":0,"byteOffset":429920,"byteLength":2880,"target":34962,"byteStride":12},{"buffer":0,"byteOffset":432800,"byteLength":1920,"target":34962,"byteStride":8},{"buffer":0,"byteOffset":434720,"byteLength":2880,"target":34962,"byteStride":12},{"buffer":0,"byteOffset":437600,"byteLength":2880,"target":34962,"byteStride":12},{"buffer":0,"byteOffset":440480,"byteLength":1920,"target":34962,"byteStride":8},{"buffer":0,"byteOffset":442400,"byteLength":2880,"target":34962,"byteStride":12},{"buffer":0,"byteOffset":445280,"byteLength":2880,"target":34962,"byteStride":12},{"buffer":0,"byteOffset":448160,"byteLength":1920,"target":34962,"byteStride":8},{"buffer":0,"byteOffset":450080,"byteLength":2880,"target":34962,"byteStride":12},{"buffer":0,"byteOffset":452960,"byteLength":2880,"target":34962,"byteStride":12},{"buffer":0,"byteOffset":455840,"byteLength":1920,"target":34962,"byteStride":8},{"buffer":0,"byteOffset":457760,"byteLength":2880,"target":34962,"byteStride":12},{"buffer":0,"byteOffset":460640,"byteLength":2880,"target":34962,"byteStride":12},{"buffer":0,"byteOffset":463520,"byteLength":1920,"target":34962,"byteStride":8},{"buffer":0,"byteOffset":465440,"byteLength":2880,"target":34962,"byteStride":12},{"buffer":0,"byteOffset":468320,"byteLength":2880,"target":34962,"byteStride":12},{"buffer":0,"byteOffset":471200,"byteLength":1920,"target":34962,"byteStride":8},{"buffer":0,"byteOffset":473120,"byteLength":2880,"target":34962,"byteStride":12},{"buffer":0,"byteOffset":476000,"byteLength":2880,"target":34962,"byteStride":12},{"buffer":0,"byteOffset":478880,"byteLength":1920,"target":34962,"byteStride":8},{"buffer":0,"byteOffset":480800,"byteLength":2880,"target":34962,"byteStride":12},{"buffer":0,"byteOffset":483680,"byteLength":2880,"target":34962,"byteStride":12},{"buffer":0,"byteOffset":486560,"byteLength":1920,"target":34962,"byteStride":8},{"buffer":0,"byteOffset":488480,"byteLength":2880,"target":34962,"byteStride":12},{"buffer":0,"byteOffset":491360,"byteLength":2880,"target":34962,"byteStride":12},{"buffer":0,"byteOffset":494240,"byteLength":1920,"target":34962,"byteStride":8},{"buffer":0,"byteOffset":496160,"byteLength":2880,"target":34962,"byteStride":12},{"buffer":0,"byteOffset":499040,"byteLength":2880,"target":34962,"byteStride":12},{"buffer":0,"byteOffset":501920,"byteLength":1920,"target":34962,"byteStride":8},{"buffer":0,"byteOffset":503840,"byteLength":2880,"target":34962,"byteStride":12},{"buffer":0,"byteOffset":506720,"byteLength":2880,"target":34962,"byteStride":12},{"buffer":0,"byteOffset":509600,"byteLength":1920,"target":34962,"byteStride":8},{"buffer":0,"byteOffset":511520,"byteLength":2880,"target":34962,"byteStride":12},{"buffer":0,"byteOffset":514400,"byteLength":2880,"target":34962,"byteStride":12},{"buffer":0,"byteOffset":517280,"byteLength":1920,"target":34962,"byteStride":8},{"buffer":0,"byteOffset":519200,"byteLength":2880,"target":34962,"byteStride":12},{"buffer":0,"byteOffset":522080,"byteLength":2880,"target":34962,"byteStride":12},{"buffer":0,"byteOffset":524960,"byteLength":1920,"target":34962,"byteStride":8},{"buffer":0,"byteOffset":526880,"byteLength":2880,"target":34962,"byteStride":12},{"buffer":0,"byteOffset":529760,"byteLength":2880,"target":34962,"byteStride":12},{"buffer":0,"byteOffset":532640,"byteLength":1920,"target":34962,"byteStride":8},{"buffer":0,"byteOffset":534560,"byteLength":2880,"target":34962,"byteStride":12},{"buffer":0,"byteOffset":537440,"byteLength":2880,"target":34962,"byteStride":12},{"buffer":0,"byteOffset":540320,"byteLength":1920,"target":34962,"byteStride":8},{"buffer":0,"byteOffset":542240,"byteLength":2880,"target":34962,"byteStride":12},{"buffer":0,"byteOffset":545120,"byteLength":2880,"target":34962,"byteStride":12},{"buffer":0,"byteOffset":548000,"byteLength":1920,"target":34962,"byteStride":8},{"buffer":0,"byteOffset":549920,"byteLength":2880,"target":34962,"byteStride":12},{"buffer":0,"byteOffset":552800,"byteLength":2880,"target":34962,"byteStride":12},{"buffer":0,"byteOffset":555680,"byteLength":1920,"target":34962,"byteStride":8},{"buffer":0,"byteOffset":557600,"byteLength":2880,"target":34962,"byteStride":12},{"buffer":0,"byteOffset":560480,"byteLength":2880,"target":34962,"byteStride":12},{"buffer":0,"byteOffset":563360,"byteLength":1920,"target":34962,"byteStride":8},{"buffer":0,"byteOffset":565280,"byteLength":2880,"target":34962,"byteStride":12},{"buffer":0,"byteOffset":568160,"byteLength":2880,"target":34962,"byteStride":12},{"buffer":0,"byteOffset":571040,"byteLength":1920,"target":34962,"byteStride":8},{"buffer":0,"byteOffset":572960,"byteLength":2880,"target":34962,"byteStride":12},{"buffer":0,"byteOffset":575840,"byteLength":2880,"target":34962,"byteStride":12},{"buffer":0,"byteOffset":578720,"byteLength":1920,"target":34962,"byteStride":8},{"buffer":0,"byteOffset":580640,"byteLength":2880,"target":34962,"byteStride":12},{"buffer":0,"byteOffset":583520,"byteLength":2880,"target":34962,"byteStride":12},{"buffer":0,"byteOffset":586400,"byteLength":1920,"target":34962,"byteStride":8},{"buffer":0,"byteOffset":588320,"byteLength":2880,"target":34962,"byteStride":12},{"buffer":0,"byteOffset":591200,"byteLength":2880,"target":34962,"byteStride":12},{"buffer":0,"byteOffset":594080,"byteLength":1920,"target":34962,"byteStride":8},{"buffer":0,"byteOffset":596000,"byteLength":2880,"target":34962,"byteStride":12},{"buffer":0,"byteOffset":598880,"byteLength":2880,"target":34962,"byteStride":12},{"buffer":0,"byteOffset":601760,"byteLength":1920,"target":34962,"byteStride":8},{"buffer":0,"byteOffset":603680,"byteLength":2880,"target":34962,"byteStride":12},{"buffer":0,"byteOffset":606560,"byteLength":2880,"target":34962,"byteStride":12},{"buffer":0,"byteOffset":609440,"byteLength":1920,"target":34962,"byteStride":8},{"buffer":0,"byteOffset":611360,"byteLength":2880,"target":34962,"byteStride":12},{"buffer":0,"byteOffset":614240,"byteLength":2880,"target":34962,"byteStride":12},{"buffer":0,"byteOffset":617120,"byteLength":1920,"target":34962,"byteStride":8},{"buffer":0,"byteOffset":619040,"byteLength":2880,"target":34962,"byteStride":12},{"buffer":0,"byteOffset":621920,"byteLength":2880,"target":34962,"byteStride":12},{"buffer":0,"byteOffset":624800,"byteLength":1920,"target":34962,"byteStride":8},{"buffer":0,"byteOffset":626720,"byteLength":288,"target":34962,"byteStride":12},{"buffer":0,"byteOffset":627008,"byteLength":288,"target":34962,"byteStride":12},{"buffer":0,"byteOffset":627296,"byteLength":192,"target":34962,"byteStride":8},{"buffer":0,"byteOffset":627488,"byteLength":72,"target":34963},{"buffer":0,"byteOffset":627560,"byteLength":288,"target":34962,"byteStride":12},{"buffer":0,"byteOffset":627848,"byteLength":288,"target":34962,"byteStride":12},{"buffer":0,"byteOffset":628136,"byteLength":192,"target":34962,"byteStride":8},{"buffer":0,"byteOffset":628328,"byteLength":72,"target":34963},{"buffer":0,"byteOffset":628400,"byteLength":288,"target":34962,"byteStride":12},{"buffer":0,"byteOffset":628688,"byteLength":288,"target":34962,"byteStride":12},{"buffer":0,"byteOffset":628976,"byteLength":192,"target":34962,"byteStride":8},{"buffer":0,"byteOffset":629168,"byteLength":72,"target":34963},{"buffer":0,"byteOffset":629240,"byteLength":288,"target":34962,"byteStride":12},{"buffer":0,"byteOffset":629528,"byteLength":288,"target":34962,"byteStride":12},{"buffer":0,"byteOffset":629816,"byteLength":192,"target":34962,"byteStride":8},{"buffer":0,"byteOffset":630008,"byteLength":72,"target":34963},{"buffer":0,"byteOffset":630080,"byteLength":288,"target":34962,"byteStride":12},{"buffer":0,"byteOffset":630368,"byteLength":288,"target":34962,"byteStride":12},{"buffer":0,"byteOffset":630656,"byteLength":192,"target":34962,"byteStride":8},{"buffer":0,"byteOffset":630848,"byteLength":72,"target":34963},{"buffer":0,"byteOffset":630920,"byteLength":288,"target":34962,"byteStride":12},{"buffer":0,"byteOffset":631208,"byteLength":288,"target":34962,"byteStride":12},{"buffer":0,"byteOffset":631496,"byteLength":192,"target":34962,"byteStride":8},{"buffer":0,"byteOffset":631688,"byteLength":72,"target":34963},{"buffer":0,"byteOffset":631760,"byteLength":288,"target":34962,"byteStride":12},{"buffer":0,"byteOffset":632048,"byteLength":288,"target":34962,"byteStride":12},{"buffer":0,"byteOffset":632336,"byteLength":192,"target":34962,"byteStride":8},{"buffer":0,"byteOffset":632528,"byteLength":72,"target":34963},{"buffer":0,"byteOffset":632600,"byteLength":288,"target":34962,"byteStride":12},{"buffer":0,"byteOffset":632888,"byteLength":288,"target":34962,"byteStride":12},{"buffer":0,"byteOffset":633176,"byteLength":192,"target":34962,"byteStride":8},{"buffer":0,"byteOffset":633368,"byteLength":72,"target":34963},{"buffer":0,"byteOffset":633440,"byteLength":288,"target":34962,"byteStride":12},{"buffer":0,"byteOffset":633728,"byteLength":288,"target":34962,"byteStride":12},{"buffer":0,"byteOffset":634016,"byteLength":192,"target":34962,"byteStride":8},{"buffer":0,"byteOffset":634208,"byteLength":72,"target":34963},{"buffer":0,"byteOffset":634280,"byteLength":288,"target":34962,"byteStride":12},{"buffer":0,"byteOffset":634568,"byteLength":288,"target":34962,"byteStride":12},{"buffer":0,"byteOffset":634856,"byteLength":192,"target":34962,"byteStride":8},{"buffer":0,"byteOffset":635048,"byteLength":72,"target":34963},{"buffer":0,"byteOffset":635120,"byteLength":288,"target":34962,"byteStride":12},{"buffer":0,"byteOffset":635408,"byteLength":288,"target":34962,"byteStride":12},{"buffer":0,"byteOffset":635696,"byteLength":192,"target":34962,"byteStride":8},{"buffer":0,"byteOffset":635888,"byteLength":72,"target":34963},{"buffer":0,"byteOffset":635960,"byteLength":288,"target":34962,"byteStride":12},{"buffer":0,"byteOffset":636248,"byteLength":288,"target":34962,"byteStride":12},{"buffer":0,"byteOffset":636536,"byteLength":192,"target":34962,"byteStride":8},{"buffer":0,"byteOffset":636728,"byteLength":72,"target":34963},{"buffer":0,"byteOffset":636800,"byteLength":288,"target":34962,"byteStride":12},{"buffer":0,"byteOffset":637088,"byteLength":288,"target":34962,"byteStride":12},{"buffer":0,"byteOffset":637376,"byteLength":192,"target":34962,"byteStride":8},{"buffer":0,"byteOffset":637568,"byteLength":72,"target":34963},{"buffer":0,"byteOffset":637640,"byteLength":288,"target":34962,"byteStride":12},{"buffer":0,"byteOffset":637928,"byteLength":288,"target":34962,"byteStride":12},{"buffer":0,"byteOffset":638216,"byteLength":192,"target":34962,"byteStride":8},{"buffer":0,"byteOffset":638408,"byteLength":72,"target":34963},{"buffer":0,"byteOffset":638480,"byteLength":288,"target":34962,"byteStride":12},{"buffer":0,"byteOffset":638768,"byteLength":288,"target":34962,"byteStride":12},{"buffer":0,"byteOffset":639056,"byteLength":192,"target":34962,"byteStride":8},{"buffer":0,"byteOffset":639248,"byteLength":72,"target":34963},{"buffer":0,"byteOffset":639320,"byteLength":288,"target":34962,"byteStride":12},{"buffer":0,"byteOffset":639608,"byteLength":288,"target":34962,"byteStride":12},{"buffer":0,"byteOffset":639896,"byteLength":192,"target":34962,"byteStride":8},{"buffer":0,"byteOffset":640088,"byteLength":72,"target":34963},{"buffer":0,"byteOffset":640160,"byteLength":288,"target":34962,"byteStride":12},{"buffer":0,"byteOffset":640448,"byteLength":288,"target":34962,"byteStride":12},{"buffer":0,"byteOffset":640736,"byteLength":192,"target":34962,"byteStride":8},{"buffer":0,"byteOffset":640928,"byteLength":72,"target":34963},{"buffer":0,"byteOffset":641000,"byteLength":288,"target":34962,"byteStride":12},{"buffer":0,"byteOffset":641288,"byteLength":288,"target":34962,"byteStride":12},{"buffer":0,"byteOffset":641576,"byteLength":192,"target":34962,"byteStride":8},{"buffer":0,"byteOffset":641768,"byteLength":72,"target":34963},{"buffer":0,"byteOffset":641840,"byteLength":288,"target":34962,"byteStride":12},{"buffer":0,"byteOffset":642128,"byteLength":288,"target":34962,"byteStride":12},{"buffer":0,"byteOffset":642416,"byteLength":192,"target":34962,"byteStride":8},{"buffer":0,"byteOffset":642608,"byteLength":72,"target":34963},{"buffer":0,"byteOffset":642680,"byteLength":288,"target":34962,"byteStride":12},{"buffer":0,"byteOffset":642968,"byteLength":288,"target":34962,"byteStride":12},{"buffer":0,"byteOffset":643256,"byteLength":192,"target":34962,"byteStride":8},{"buffer":0,"byteOffset":643448,"byteLength":72,"target":34963},{"buffer":0,"byteOffset":643520,"byteLength":288,"target":34962,"byteStride":12},{"buffer":0,"byteOffset":643808,"byteLength":288,"target":34962,"byteStride":12},{"buffer":0,"byteOffset":644096,"byteLength":192,"target":34962,"byteStride":8},{"buffer":0,"byteOffset":644288,"byteLength":72,"target":34963},{"buffer":0,"byteOffset":644360,"byteLength":288,"target":34962,"byteStride":12},{"buffer":0,"byteOffset":644648,"byteLength":288,"target":34962,"byteStride":12},{"buffer":0,"byteOffset":644936,"byteLength":192,"target":34962,"byteStride":8},{"buffer":0,"byteOffset":645128,"byteLength":72,"target":34963},{"buffer":0,"byteOffset":645200,"byteLength":288,"target":34962,"byteStride":12},{"buffer":0,"byteOffset":645488,"byteLength":288,"target":34962,"byteStride":12},{"buffer":0,"byteOffset":645776,"byteLength":192,"target":34962,"byteStride":8},{"buffer":0,"byteOffset":645968,"byteLength":72,"target":34963},{"buffer":0,"byteOffset":646040,"byteLength":288,"target":34962,"byteStride":12},{"buffer":0,"byteOffset":646328,"byteLength":288,"target":34962,"byteStride":12},{"buffer":0,"byteOffset":646616,"byteLength":192,"target":34962,"byteStride":8},{"buffer":0,"byteOffset":646808,"byteLength":72,"target":34963},{"buffer":0,"byteOffset":646880,"byteLength":288,"target":34962,"byteStride":12},{"buffer":0,"byteOffset":647168,"byteLength":288,"target":34962,"byteStride":12},{"buffer":0,"byteOffset":647456,"byteLength":192,"target":34962,"byteStride":8},{"buffer":0,"byteOffset":647648,"byteLength":72,"target":34963},{"buffer":0,"byteOffset":647720,"byteLength":288,"target":34962,"byteStride":12},{"buffer":0,"byteOffset":648008,"byteLength":288,"target":34962,"byteStride":12},{"buffer":0,"byteOffset":648296,"byteLength":192,"target":34962,"byteStride":8},{"buffer":0,"byteOffset":648488,"byteLength":72,"target":34963}],"buffers":[{"byteLength":648560,"uri":"data:application/octet-stream;base64,"}],"accessors":[{"bufferView":0,"componentType":5126,"count":9409,"max":[120,120,8.586920738220215],"min":[-120,-120,-10.178252220153809],"type":"VEC3"},{"bufferView":1,"componentType":5126,"count":9409,"max":[0.9310958981513977,0.930125892162323,0.9999898076057434],"min":[-0.9091535806655884,-0.9438248872756958,0.25779300928115845],"type":"VEC3"},{"bufferView":2,"componentType":5126,"count":9409,"max":[1,1],"min":[0,0],"type":"VEC2"},{"bufferView":3,"componentType":5123,"count":55296,"max":[9408],"min":[0],"type":"SCALAR"},{"bufferView":4,"componentType":5126,"count":240,"max":[23.664705276489258,23.241750717163086,25.687232971191406],"min":[-28.97669792175293,-23.241750717163086,-26.46544075012207],"type":"VEC3"},{"bufferView":5,"componentType":5126,"count":240,"max":[0.9966073036193848,0.9939890503883362,0.9721062183380127],"min":[-0.8431406617164612,-0.9939890503883362,-0.9229878187179565],"type":"VEC3"},{"bufferView":6,"componentType":5126,"count":240,"max":[1.0580698251724243,1],"min":[0,0],"type":"VEC2"},{"bufferView":7,"componentType":5126,"count":240,"max":[21.654483795166016,19.95606803894043,21.10481071472168],"min":[-21.680614471435547,-19.95606803894043,-21.27288055419922],"type":"VEC3"},{"bufferView":8,"componentType":5126,"count":240,"max":[0.9534687995910645,0.996236264705658,0.9660462141036987],"min":[-0.9466424584388733,-0.996236264705658,-0.9786610007286072],"type":"VEC3"},{"bufferView":9,"componentType":5126,"count":240,"max":[1.0580698251724243,1],"min":[0,0],"type":"VEC2"},{"bufferView":10,"componentType":5126,"count":240,"max":[16.914770126342773,16.959257125854492,20.53181266784668],"min":[-21.903196334838867,-16.959257125854492,-18.110580444335938],"type":"VEC3"},{"bufferView":11,"componentType":5126,"count":240,"max":[0.9870564341545105,0.9944373965263367,0.9095235466957092],"min":[-0.8890552520751953,-0.9944373965263367,-0.9648396372795105],"type":"VEC3"},{"bufferView":12,"componentType":5126,"count":240,"max":[1.0580698251724243,1],"min":[0,0],"type":"VEC2"},{"bufferView":13,"componentType":5126,"count":240,"max":[18.33495330810547,15.423887252807617,17.35713768005371],"min":[-15.558236122131348,-15.423887252807617,-17.852855682373047],"type":"VEC3"},{"bufferView":14,"componentType":5126,"count":240,"max":[0.9282574653625488,0.9981086254119873,0.9538272023200989],"min":[-0.9793649315834045,-0.9981086254119873,-0.9024093151092529],"type":"VEC3"},{"bufferView":15,"componentType":5126,"count":240,"max":[1.0580698251724243,1],"min":[0,0],"type":"VEC2"},{"bufferView":16,"componentType":5126,"count":240,"max":[34.85886001586914,28.79931640625,34.87199783325195],"min":[-29.295639038085938,-28.79931640625,-29.133159637451172],"type":"VEC3"},{"bufferView":17,"componentType":5126,"count":240,"max":[0.8858934640884399,0.9958050847053528,0.8943172097206116],"min":[-0.9821940064430237,-0.9958050847053528,-0.9959987998008728],"type":"VEC3"},{"bufferView":18,"componentType":5126,"count":240,"max":[1.0580698251724243,1],"min":[0,0],"type":"VEC2"},{"bufferView":19,"componentType":5126,"count":240,"max":[24.91681671142578,20.505638122558594,22.18032455444336],"min":[-20.743896484375,-20.505638122558594,-22.427135467529297],"type":"VEC3"},{"bufferView":20,"componentType":5126,"count":240,"max":[0.8703930974006653,0.9875262975692749,0.9741081595420837],"min":[-0.9903848171234131,-0.9875262975692749,-0.9731078743934631],"type":"VEC3"},{"bufferView":21,"componentType":5126,"count":240,"max":[1.0580698251724243,1],"min":[0,0],"type":"VEC2"},{"bufferView":22,"componentType":5126,"count":240,"max":[14.4315824508667,12.749359130859375,12.673704147338867],"min":[-13.72084903717041,-12.749359130859375,-15.435396194458008],"type":"VEC3"},{"bufferView":23,"componentType":5126,"count":240,"max":[0.9652174115180969,0.9977760910987854,0.9964665174484253],"min":[-0.9929540753364563,-0.9977760910987854,-0.8719905018806458],"type":"VEC3"},{"bufferView":24,"componentType":5126,"count":240,"max":[1.0580698251724243,1],"min":[0,0],"type":"VEC2"},{"bufferView":25,"componentType":5126,"count":240,"max":[5.536875247955322,5.420318126678467,5.606531143188477],"min":[-6.522144794464111,-5.420318126678467,-6.7322587966918945],"type":"VEC3"},{"bufferView":26,"componentType":5126,"count":240,"max":[0.9805747866630554,0.995133101940155,0.9999236464500427],"min":[-0.8765614628791809,-0.995133101940155,-0.8406142592430115],"type":"VEC3"},{"bufferView":27,"componentType":5126,"count":240,"max":[1.0580698251724243,1],"min":[0,0],"type":"VEC2"},{"bufferView":28,"componentType":5126,"count":240,"max":[9.789909362792969,8.738350868225098,8.85401725769043],"min":[-10.1512451171875,-8.738350868225098,-9.846231460571289],"type":"VEC3"},{"bufferView":29,"componentType":5126,"count":240,"max":[0.9724092483520508,0.9967390894889832,0.9999898076057434],"min":[-0.8847020268440247,-0.9967390894889832,-0.9546281099319458],"type":"VEC3"},{"bufferView":30,"componentType":5126,"count":240,"max":[1.0580698251724243,1],"min":[0,0],"type":"VEC2"},{"bufferView":31,"componentType":5126,"count":240,"max":[19.069244384765625,16.637754440307617,19.22997283935547],"min":[-18.923206329345703,-16.637754440307617,-17.65842628479004],"type":"VEC3"},{"bufferView":32,"componentType":5126,"count":240,"max":[0.9499038457870483,0.9959571361541748,0.9416233897209167],"min":[-0.9270026683807373,-0.9959571361541748,-0.9957109689712524],"type":"VEC3"},{"bufferView":33,"componentType":5126,"count":240,"max":[1.0580698251724243,1],"min":[0,0],"type":"VEC2"},{"bufferView":34,"componentType":5126,"count":240,"max":[26.93671417236328,22.308988571166992,24.664016723632812],"min":[-22.08926010131836,-22.308988571166992,-26.002965927124023],"type":"VEC3"},{"bufferView":35,"componentType":5126,"count":240,"max":[0.9018720984458923,0.9971160888671875,0.9261850714683533],"min":[-0.9902135729789734,-0.9971160888671875,-0.9483266472816467],"type":"VEC3"},{"bufferView":36,"componentType":5126,"count":240,"max":[1.0580698251724243,1],"min":[0,0],"type":"VEC2"},{"bufferView":37,"componentType":5126,"count":240,"max":[14.562727928161621,12.950934410095215,15.459026336669922],"min":[-14.094009399414062,-12.950934410095215,-14.08137035369873],"type":"VEC3"},{"bufferView":38,"componentType":5126,"count":240,"max":[0.9462404251098633,0.997683584690094,0.9313952326774597],"min":[-0.9504035711288452,-0.997683584690094,-0.9588091969490051],"type":"VEC3"},{"bufferView":39,"componentType":5126,"count":240,"max":[1.0580698251724243,1],"min":[0,0],"type":"VEC2"},{"bufferView":40,"componentType":5126,"count":240,"max":[17.023530960083008,15.784689903259277,18.376022338867188],"min":[-18.065351486206055,-15.784689903259277,-17.446941375732422],"type":"VEC3"},{"bufferView":41,"componentType":5126,"count":240,"max":[0.949089527130127,0.9890838265419006,0.9532839059829712],"min":[-0.974190354347229,-0.9890838265419006,-0.9464712738990784],"type":"VEC3"},{"bufferView":42,"componentType":5126,"count":240,"max":[1.0580698251724243,1],"min":[0,0],"type":"VEC2"},{"bufferView":43,"componentType":5126,"count":240,"max":[11.922088623046875,10.652210235595703,12.651322364807129],"min":[-12.11187744140625,-10.652210235595703,-11.073492050170898],"type":"VEC3"},{"bufferView":44,"componentType":5126,"count":240,"max":[0.933190107345581,0.9926779270172119,0.8865604996681213],"min":[-0.9511699080467224,-0.9926779270172119,-0.970353901386261],"type":"VEC3"},{"bufferView":45,"componentType":5126,"count":240,"max":[1.0580698251724243,1],"min":[0,0],"type":"VEC2"},{"bufferView":46,"componentType":5126,"count":240,"max":[15.910046577453613,13.71708869934082,15.832427024841309],"min":[-15.102460861206055,-13.71708869934082,-14.705538749694824],"type":"VEC3"},{"bufferView":47,"componentType":5126,"count":240,"max":[0.9382014870643616,0.9966554641723633,0.9442549347877502],"min":[-0.9281502962112427,-0.9966554641723633,-0.9675443768501282],"type":"VEC3"},{"bufferView":48,"componentType":5126,"count":240,"max":[1.0580698251724243,1],"min":[0,0],"type":"VEC2"},{"bufferView":49,"componentType":5126,"count":240,"max":[23.193838119506836,19.52779769897461,23.000621795654297],"min":[-21.5749568939209,-19.52779769897461,-19.67739486694336],"type":"VEC3"},{"bufferView":50,"componentType":5126,"count":240,"max":[0.895080029964447,0.996951699256897,0.9351876378059387],"min":[-0.9534761309623718,-0.996951699256897,-0.9966132640838623],"type":"VEC3"},{"bufferView":51,"componentType":5126,"count":240,"max":[1.0580698251724243,1],"min":[0,0],"type":"VEC2"},{"bufferView":52,"componentType":5126,"count":240,"max":[15.695771217346191,15.014450073242188,15.932867050170898],"min":[-17.226917266845703,-15.014450073242188,-16.875648498535156],"type":"VEC3"},{"bufferView":53,"componentType":5126,"count":240,"max":[0.9475997090339661,0.9943590760231018,0.976391077041626],"min":[-0.9258885383605957,-0.9943590760231018,-0.9638411402702332],"type":"VEC3"},{"bufferView":54,"componentType":5126,"count":240,"max":[1.0580698251724243,1],"min":[0,0],"type":"VEC2"},{"bufferView":55,"componentType":5126,"count":240,"max":[13.384774208068848,11.816187858581543,13.163267135620117],"min":[-12.347294807434082,-11.816187858581543,-12.749244689941406],"type":"VEC3"},{"bufferView":56,"componentType":5126,"count":240,"max":[0.903744101524353,0.9793625473976135,0.951729953289032],"min":[-0.9735820293426514,-0.9793625473976135,-0.9908495545387268],"type":"VEC3"},{"bufferView":57,"componentType":5126,"count":240,"max":[1.0580698251724243,1],"min":[0,0],"type":"VEC2"},{"bufferView":58,"componentType":5126,"count":240,"max":[20.426618576049805,17.84671401977539,18.29548454284668],"min":[-18.672863006591797,-17.84671401977539,-21.874370574951172],"type":"VEC3"},{"bufferView":59,"componentType":5126,"count":240,"max":[0.9788598418235779,0.9827020168304443,0.9857839941978455],"min":[-0.9457992911338806,-0.9827020168304443,-0.9345362782478333],"type":"VEC3"},{"bufferView":60,"componentType":5126,"count":240,"max":[1.0580698251724243,1],"min":[0,0],"type":"VEC2"},{"bufferView":61,"componentType":5126,"count":240,"max":[7.2659077644348145,6.198943138122559,6.375577449798584],"min":[-6.156620025634766,-6.198943138122559,-7.105024337768555],"type":"VEC3"},{"bufferView":62,"componentType":5126,"count":240,"max":[0.9523037075996399,0.9949591755867004,0.9474051594734192],"min":[-0.9523061513900757,-0.9949591755867004,-0.9353753924369812],"type":"VEC3"},{"bufferView":63,"componentType":5126,"count":240,"max":[1.0580698251724243,1],"min":[0,0],"type":"VEC2"},{"bufferView":64,"componentType":5126,"count":240,"max":[9.15672779083252,8.047211647033691,9.558570861816406],"min":[-8.13534927368164,-8.047211647033691,-8.458828926086426],"type":"VEC3"},{"bufferView":65,"componentType":5126,"count":240,"max":[0.9563305377960205,0.9978269338607788,0.9202011823654175],"min":[-0.9733580350875854,-0.9978269338607788,-0.9818726778030396],"type":"VEC3"},{"bufferView":66,"componentType":5126,"count":240,"max":[1.0580698251724243,1],"min":[0,0],"type":"VEC2"},{"bufferView":67,"componentType":5126,"count":240,"max":[30.148910522460938,30.177318572998047,30.848234176635742],"min":[-36.748321533203125,-30.177318572998047,-31.18824005126953],"type":"VEC3"},{"bufferView":68,"componentType":5126,"count":240,"max":[0.9948612451553345,0.9906414747238159,0.9978005886077881],"min":[-0.8437650203704834,-0.9906414747238159,-0.9613754153251648],"type":"VEC3"},{"bufferView":69,"componentType":5126,"count":240,"max":[1.0580698251724243,1],"min":[0,0],"type":"VEC2"},{"bufferView":70,"componentType":5126,"count":240,"max":[7.930451393127441,7.2099127769470215,7.825801372528076],"min":[-8.161324501037598,-7.2099127769470215,-8.076643943786621],"type":"VEC3"},{"bufferView":71,"componentType":5126,"count":240,"max":[0.9601896405220032,0.9979690909385681,0.9587019085884094],"min":[-0.9308335781097412,-0.9979690909385681,-0.9448346495628357],"type":"VEC3"},{"bufferView":72,"componentType":5126,"count":240,"max":[1.0580698251724243,1],"min":[0,0],"type":"VEC2"},{"bufferView":73,"componentType":5126,"count":240,"max":[14.720272064208984,13.523309707641602,15.929902076721191],"min":[-14.846039772033691,-13.523309707641602,-14.016220092773438],"type":"VEC3"},{"bufferView":74,"componentType":5126,"count":240,"max":[0.9645557403564453,0.9939433336257935,0.906899094581604],"min":[-0.9249047636985779,-0.9939433336257935,-0.9971876740455627],"type":"VEC3"},{"bufferView":75,"componentType":5126,"count":240,"max":[1.0580698251724243,1],"min":[0,0],"type":"VEC2"},{"bufferView":76,"componentType":5126,"count":240,"max":[14.989612579345703,13.244335174560547,14.454934120178223],"min":[-14.679499626159668,-13.244335174560547,-15.986318588256836],"type":"VEC3"},{"bufferView":77,"componentType":5126,"count":240,"max":[0.9273515343666077,0.9948017597198486,0.9440301060676575],"min":[-0.8742927312850952,-0.9948017597198486,-0.9514864087104797],"type":"VEC3"},{"bufferView":78,"componentType":5126,"count":240,"max":[1.0580698251724243,1],"min":[0,0],"type":"VEC2"},{"bufferView":79,"componentType":5126,"count":240,"max":[17.188600540161133,15.566536903381348,16.563594818115234],"min":[-17.359128952026367,-15.566536903381348,-18.19820213317871],"type":"VEC3"},{"bufferView":80,"componentType":5126,"count":240,"max":[0.9860814213752747,0.9915486574172974,0.9620043039321899],"min":[-0.9745728373527527,-0.9915486574172974,-0.95735102891922],"type":"VEC3"},{"bufferView":81,"componentType":5126,"count":240,"max":[1.0580698251724243,1],"min":[0,0],"type":"VEC2"},{"bufferView":82,"componentType":5126,"count":240,"max":[15.236940383911133,14.546818733215332,16.948654174804688],"min":[-17.522676467895508,-14.546818733215332,-16.197589874267578],"type":"VEC3"},{"bufferView":83,"componentType":5126,"count":240,"max":[0.9658308625221252,0.9952830672264099,0.9317306876182556],"min":[-0.8891414999961853,-0.9952830672264099,-0.9439678192138672],"type":"VEC3"},{"bufferView":84,"componentType":5126,"count":240,"max":[1.0580698251724243,1],"min":[0,0],"type":"VEC2"},{"bufferView":85,"componentType":5126,"count":240,"max":[14.204834938049316,13.509448051452637,15.153477668762207],"min":[-14.65970230102539,-13.509448051452637,-14.24980640411377],"type":"VEC3"},{"bufferView":86,"componentType":5126,"count":240,"max":[0.9655763506889343,0.9771046042442322,0.98206627368927],"min":[-0.9880545139312744,-0.9771046042442322,-0.9988917112350464],"type":"VEC3"},{"bufferView":87,"componentType":5126,"count":240,"max":[1.0580698251724243,1],"min":[0,0],"type":"VEC2"},{"bufferView":88,"componentType":5126,"count":24,"max":[2.2528393268585205,1.3748916387557983,2.472231149673462],"min":[-2.2528393268585205,-1.3748916387557983,-2.472231149673462],"type":"VEC3"},{"bufferView":89,"componentType":5126,"count":24,"max":[1,1,1],"min":[-1,-1,-1],"type":"VEC3"},{"bufferView":90,"componentType":5126,"count":24,"max":[1,1],"min":[0,0],"type":"VEC2"},{"bufferView":91,"componentType":5123,"count":36,"max":[23],"min":[0],"type":"SCALAR"},{"bufferView":92,"componentType":5126,"count":24,"max":[1.9362326860427856,3.673997640609741,1.9904152154922485],"min":[-1.9362326860427856,-3.673997640609741,-1.9904152154922485],"type":"VEC3"},{"bufferView":93,"componentType":5126,"count":24,"max":[1,1,1],"min":[-1,-1,-1],"type":"VEC3"},{"bufferView":94,"componentType":5126,"count":24,"max":[1,1],"min":[0,0],"type":"VEC2"},{"bufferView":95,"componentType":5123,"count":36,"max":[23],"min":[0],"type":"SCALAR"},{"bufferView":96,"componentType":5126,"count":24,"max":[0.9696840643882751,1.3126945495605469,1.0530537366867065],"min":[-0.9696840643882751,-1.3126945495605469,-1.0530537366867065],"type":"VEC3"},{"bufferView":97,"componentType":5126,"count":24,"max":[1,1,1],"min":[-1,-1,-1],"type":"VEC3"},{"bufferView":98,"componentType":5126,"count":24,"max":[1,1],"min":[0,0],"type":"VEC2"},{"bufferView":99,"componentType":5123,"count":36,"max":[23],"min":[0],"type":"SCALAR"},{"bufferView":100,"componentType":5126,"count":24,"max":[1.4292237758636475,2.909508466720581,1.4122685194015503],"min":[-1.4292237758636475,-2.909508466720581,-1.4122685194015503],"type":"VEC3"},{"bufferView":101,"componentType":5126,"count":24,"max":[1,1,1],"min":[-1,-1,-1],"type":"VEC3"},{"bufferView":102,"componentType":5126,"count":24,"max":[1,1],"min":[0,0],"type":"VEC2"},{"bufferView":103,"componentType":5123,"count":36,"max":[23],"min":[0],"type":"SCALAR"},{"bufferView":104,"componentType":5126,"count":24,"max":[3.1371123790740967,2.2662932872772217,2.7552409172058105],"min":[-3.1371123790740967,-2.2662932872772217,-2.7552409172058105],"type":"VEC3"},{"bufferView":105,"componentType":5126,"count":24,"max":[1,1,1],"min":[-1,-1,-1],"type":"VEC3"},{"bufferView":106,"componentType":5126,"count":24,"max":[1,1],"min":[0,0],"type":"VEC2"},{"bufferView":107,"componentType":5123,"count":36,"max":[23],"min":[0],"type":"SCALAR"},{"bufferView":108,"componentType":5126,"count":24,"max":[2.558328151702881,2.8525092601776123,2.2222137451171875],"min":[-2.558328151702881,-2.8525092601776123,-2.2222137451171875],"type":"VEC3"},{"bufferView":109,"componentType":5126,"count":24,"max":[1,1,1],"min":[-1,-1,-1],"type":"VEC3"},{"bufferView":110,"componentType":5126,"count":24,"max":[1,1],"min":[0,0],"type":"VEC2"},{"bufferView":111,"componentType":5123,"count":36,"max":[23],"min":[0],"type":"SCALAR"},{"bufferView":112,"componentType":5126,"count":24,"max":[1.3107540607452393,3.6882214546203613,1.3249942064285278],"min":[-1.3107540607452393,-3.6882214546203613,-1.3249942064285278],"type":"VEC3"},{"bufferView":113,"componentType":5126,"count":24,"max":[1,1,1],"min":[-1,-1,-1],"type":"VEC3"},{"bufferView":114,"componentType":5126,"count":24,"max":[1,1],"min":[0,0],"type":"VEC2"},{"bufferView":115,"componentType":5123,"count":36,"max":[23],"min":[0],"type":"SCALAR"},{"bufferView":116,"componentType":5126,"count":24,"max":[1.5364952087402344,1.5450468063354492,1.682587742805481],"min":[-1.5364952087402344,-1.5450468063354492,-1.682587742805481],"type":"VEC3"},{"bufferView":117,"componentType":5126,"count":24,"max":[1,1,1],"min":[-1,-1,-1],"type":"VEC3"},{"bufferView":118,"componentType":5126,"count":24,"max":[1,1],"min":[0,0],"type":"VEC2"},{"bufferView":119,"componentType":5123,"count":36,"max":[23],"min":[0],"type":"SCALAR"},{"bufferView":120,"componentType":5126,"count":24,"max":[2.1594889163970947,3.1859991550445557,2.0442917346954346],"min":[-2.1594889163970947,-3.1859991550445557,-2.0442917346954346],"type":"VEC3"},{"bufferView":121,"componentType":5126,"count":24,"max":[1,1,1],"min":[-1,-1,-1],"type":"VEC3"},{"bufferView":122,"componentType":5126,"count":24,"max":[1,1],"min":[0,0],"type":"VEC2"},{"bufferView":123,"componentType":5123,"count":36,"max":[23],"min":[0],"type":"SCALAR"},{"bufferView":124,"componentType":5126,"count":24,"max":[2.077333688735962,3.670840263366699,2.0193612575531006],"min":[-2.077333688735962,-3.670840263366699,-2.0193612575531006],"type":"VEC3"},{"bufferView":125,"componentType":5126,"count":24,"max":[1,1,1],"min":[-1,-1,-1],"type":"VEC3"},{"bufferView":126,"componentType":5126,"count":24,"max":[1,1],"min":[0,0],"type":"VEC2"},{"bufferView":127,"componentType":5123,"count":36,"max":[23],"min":[0],"type":"SCALAR"},{"bufferView":128,"componentType":5126,"count":24,"max":[1.9709758758544922,2.040107250213623,1.4043176174163818],"min":[-1.9709758758544922,-2.040107250213623,-1.4043176174163818],"type":"VEC3"},{"bufferView":129,"componentType":5126,"count":24,"max":[1,1,1],"min":[-1,-1,-1],"type":"VEC3"},{"bufferView":130,"componentType":5126,"count":24,"max":[1,1],"min":[0,0],"type":"VEC2"},{"bufferView":131,"componentType":5123,"count":36,"max":[23],"min":[0],"type":"SCALAR"},{"bufferView":132,"componentType":5126,"count":24,"max":[2.9811155796051025,3.662808656692505,2.7476823329925537],"min":[-2.9811155796051025,-3.662808656692505,-2.7476823329925537],"type":"VEC3"},{"bufferView":133,"componentType":5126,"count":24,"max":[1,1,1],"min":[-1,-1,-1],"type":"VEC3"},{"bufferView":134,"componentType":5126,"count":24,"max":[1,1],"min":[0,0],"type":"VEC2"},{"bufferView":135,"componentType":5123,"count":36,"max":[23],"min":[0],"type":"SCALAR"},{"bufferView":136,"componentType":5126,"count":24,"max":[3.13431715965271,3.0462710857391357,3.189138174057007],"min":[-3.13431715965271,-3.0462710857391357,-3.189138174057007],"type":"VEC3"},{"bufferView":137,"componentType":5126,"count":24,"max":[1,1,1],"min":[-1,-1,-1],"type":"VEC3"},{"bufferView":138,"componentType":5126,"count":24,"max":[1,1],"min":[0,0],"type":"VEC2"},{"bufferView":139,"componentType":5123,"count":36,"max":[23],"min":[0],"type":"SCALAR"},{"bufferView":140,"componentType":5126,"count":24,"max":[1.3694484233856201,3.358956813812256,1.1459356546401978],"min":[-1.3694484233856201,-3.358956813812256,-1.1459356546401978],"type":"VEC3"},{"bufferView":141,"componentType":5126,"count":24,"max":[1,1,1],"min":[-1,-1,-1],"type":"VEC3"},{"bufferView":142,"componentType":5126,"count":24,"max":[1,1],"min":[0,0],"type":"VEC2"},{"bufferView":143,"componentType":5123,"count":36,"max":[23],"min":[0],"type":"SCALAR"},{"bufferView":144,"componentType":5126,"count":24,"max":[2.8239800930023193,1.792554259300232,2.859386444091797],"min":[-2.8239800930023193,-1.792554259300232,-2.859386444091797],"type":"VEC3"},{"bufferView":145,"componentType":5126,"count":24,"max":[1,1,1],"min":[-1,-1,-1],"type":"VEC3"},{"bufferView":146,"componentType":5126,"count":24,"max":[1,1],"min":[0,0],"type":"VEC2"},{"bufferView":147,"componentType":5123,"count":36,"max":[23],"min":[0],"type":"SCALAR"},{"bufferView":148,"componentType":5126,"count":24,"max":[2.4118781089782715,2.9829390048980713,2.3750159740448],"min":[-2.4118781089782715,-2.9829390048980713,-2.3750159740448],"type":"VEC3"},{"bufferView":149,"componentType":5126,"count":24,"max":[1,1,1],"min":[-1,-1,-1],"type":"VEC3"},{"bufferView":150,"componentType":5126,"count":24,"max":[1,1],"min":[0,0],"type":"VEC2"},{"bufferView":151,"componentType":5123,"count":36,"max":[23],"min":[0],"type":"SCALAR"},{"bufferView":152,"componentType":5126,"count":24,"max":[2.908315658569336,1.4688661098480225,3.150939464569092],"min":[-2.908315658569336,-1.4688661098480225,-3.150939464569092],"type":"VEC3"},{"bufferView":153,"componentType":5126,"count":24,"max":[1,1,1],"min":[-1,-1,-1],"type":"VEC3"},{"bufferView":154,"componentType":5126,"count":24,"max":[1,1],"min":[0,0],"type":"VEC2"},{"bufferView":155,"componentType":5123,"count":36,"max":[23],"min":[0],"type":"SCALAR"},{"bufferView":156,"componentType":5126,"count":24,"max":[1.7150309085845947,1.6267865896224976,1.7820974588394165],"min":[-1.7150309085845947,-1.6267865896224976,-1.7820974588394165],"type":"VEC3"},{"bufferView":157,"componentType":5126,"count":24,"max":[1,1,1],"min":[-1,-1,-1],"type":"VEC3"},{"bufferView":158,"componentType":5126,"count":24,"max":[1,1],"min":[0,0],"type":"VEC2"},{"bufferView":159,"componentType":5123,"count":36,"max":[23],"min":[0],"type":"SCALAR"},{"bufferView":160,"componentType":5126,"count":24,"max":[1.1489843130111694,3.2154784202575684,0.8380483388900757],"min":[-1.1489843130111694,-3.2154784202575684,-0.8380483388900757],"type":"VEC3"},{"bufferView":161,"componentType":5126,"count":24,"max":[1,1,1],"min":[-1,-1,-1],"type":"VEC3"},{"bufferView":162,"componentType":5126,"count":24,"max":[1,1],"min":[0,0],"type":"VEC2"},{"bufferView":163,"componentType":5123,"count":36,"max":[23],"min":[0],"type":"SCALAR"},{"bufferView":164,"componentType":5126,"count":24,"max":[2.3409879207611084,2.1488425731658936,2.2848827838897705],"min":[-2.3409879207611084,-2.1488425731658936,-2.2848827838897705],"type":"VEC3"},{"bufferView":165,"componentType":5126,"count":24,"max":[1,1,1],"min":[-1,-1,-1],"type":"VEC3"},{"bufferView":166,"componentType":5126,"count":24,"max":[1,1],"min":[0,0],"type":"VEC2"},{"bufferView":167,"componentType":5123,"count":36,"max":[23],"min":[0],"type":"SCALAR"},{"bufferView":168,"componentType":5126,"count":24,"max":[3.1943130493164062,3.623000383377075,3.488379955291748],"min":[-3.1943130493164062,-3.623000383377075,-3.488379955291748],"type":"VEC3"},{"bufferView":169,"componentType":5126,"count":24,"max":[1,1,1],"min":[-1,-1,-1],"type":"VEC3"},{"bufferView":170,"componentType":5126,"count":24,"max":[1,1],"min":[0,0],"type":"VEC2"},{"bufferView":171,"componentType":5123,"count":36,"max":[23],"min":[0],"type":"SCALAR"},{"bufferView":172,"componentType":5126,"count":24,"max":[1.6364414691925049,1.5448567867279053,1.7503948211669922],"min":[-1.6364414691925049,-1.5448567867279053,-1.7503948211669922],"type":"VEC3"},{"bufferView":173,"componentType":5126,"count":24,"max":[1,1,1],"min":[-1,-1,-1],"type":"VEC3"},{"bufferView":174,"componentType":5126,"count":24,"max":[1,1],"min":[0,0],"type":"VEC2"},{"bufferView":175,"componentType":5123,"count":36,"max":[23],"min":[0],"type":"SCALAR"},{"bufferView":176,"componentType":5126,"count":24,"max":[1.4500820636749268,2.473996877670288,1.581742763519287],"min":[-1.4500820636749268,-2.473996877670288,-1.581742763519287],"type":"VEC3"},{"bufferView":177,"componentType":5126,"count":24,"max":[1,1,1],"min":[-1,-1,-1],"type":"VEC3"},{"bufferView":178,"componentType":5126,"count":24,"max":[1,1],"min":[0,0],"type":"VEC2"},{"bufferView":179,"componentType":5123,"count":36,"max":[23],"min":[0],"type":"SCALAR"},{"bufferView":180,"componentType":5126,"count":24,"max":[3.037764072418213,2.8795015811920166,2.389338254928589],"min":[-3.037764072418213,-2.8795015811920166,-2.389338254928589],"type":"VEC3"},{"bufferView":181,"componentType":5126,"count":24,"max":[1,1,1],"min":[-1,-1,-1],"type":"VEC3"},{"bufferView":182,"componentType":5126,"count":24,"max":[1,1],"min":[0,0],"type":"VEC2"},{"bufferView":183,"componentType":5123,"count":36,"max":[23],"min":[0],"type":"SCALAR"},{"bufferView":184,"componentType":5126,"count":24,"max":[2.1854569911956787,3.541048049926758,2.216586112976074],"min":[-2.1854569911956787,-3.541048049926758,-2.216586112976074],"type":"VEC3"},{"bufferView":185,"componentType":5126,"count":24,"max":[1,1,1],"min":[-1,-1,-1],"type":"VEC3"},{"bufferView":186,"componentType":5126,"count":24,"max":[1,1],"min":[0,0],"type":"VEC2"},{"bufferView":187,"componentType":5123,"count":36,"max":[23],"min":[0],"type":"SCALAR"},{"bufferView":188,"componentType":5126,"count":24,"max":[2.119476795196533,2.4542319774627686,1.555168628692627],"min":[-2.119476795196533,-2.4542319774627686,-1.555168628692627],"type":"VEC3"},{"bufferView":189,"componentType":5126,"count":24,"max":[1,1,1],"min":[-1,-1,-1],"type":"VEC3"},{"bufferView":190,"componentType":5126,"count":24,"max":[1,1],"min":[0,0],"type":"VEC2"},{"bufferView":191,"componentType":5123,"count":36,"max":[23],"min":[0],"type":"SCALAR"}],"materials":[{"pbrMetallicRoughness":{"baseColorFactor":[0.34670405634441115,0.25818285291079235,0.1912016827303171,1],"metallicFactor":0.02,"roughnessFactor":0.9}},{"pbrMetallicRoughness":{"baseColorFactor":[0.19461783043107173,0.14412847084818123,0.11193242782769693,1],"metallicFactor":0.03,"roughnessFactor":0.84}},{"pbrMetallicRoughness":{"baseColorFactor":[0.19461783043107173,0.14412847084818123,0.11193242782769693,1],"metallicFactor":0.03,"roughnessFactor":0.84}},{"pbrMetallicRoughness":{"baseColorFactor":[0.19461783043107173,0.14412847084818123,0.11193242782769693,1],"metallicFactor":0.03,"roughnessFactor":0.84}},{"pbrMetallicRoughness":{"baseColorFactor":[0.19461783043107173,0.14412847084818123,0.11193242782769693,1],"metallicFactor":0.03,"roughnessFactor":0.84}},{"pbrMetallicRoughness":{"baseColorFactor":[0.19461783043107173,0.14412847084818123,0.11193242782769693,1],"metallicFactor":0.03,"roughnessFactor":0.84}},{"pbrMetallicRoughness":{"baseColorFactor":[0.19461783043107173,0.14412847084818123,0.11193242782769693,1],"metallicFactor":0.03,"roughnessFactor":0.84}},{"pbrMetallicRoughness":{"baseColorFactor":[0.19461783043107173,0.14412847084818123,0.11193242782769693,1],"metallicFactor":0.03,"roughnessFactor":0.84}},{"pbrMetallicRoughness":{"baseColorFactor":[0.19461783043107173,0.14412847084818123,0.11193242782769693,1],"metallicFactor":0.03,"roughnessFactor":0.84}},{"pbrMetallicRoughness":{"baseColorFactor":[0.19461783043107173,0.14412847084818123,0.11193242782769693,1],"metallicFactor":0.03,"roughnessFactor":0.84}},{"pbrMetallicRoughness":{"baseColorFactor":[0.19461783043107173,0.14412847084818123,0.11193242782769693,1],"metallicFactor":0.03,"roughnessFactor":0.84}},{"pbrMetallicRoughness":{"baseColorFactor":[0.19461783043107173,0.14412847084818123,0.11193242782769693,1],"metallicFactor":0.03,"roughnessFactor":0.84}},{"pbrMetallicRoughness":{"baseColorFactor":[0.19461783043107173,0.14412847084818123,0.11193242782769693,1],"metallicFactor":0.03,"roughnessFactor":0.84}},{"pbrMetallicRoughness":{"baseColorFactor":[0.19461783043107173,0.14412847084818123,0.11193242782769693,1],"metallicFactor":0.03,"roughnessFactor":0.84}},{"pbrMetallicRoughness":{"baseColorFactor":[0.19461783043107173,0.14412847084818123,0.11193242782769693,1],"metallicFactor":0.03,"roughnessFactor":0.84}},{"pbrMetallicRoughness":{"baseColorFactor":[0.19461783043107173,0.14412847084818123,0.11193242782769693,1],"metallicFactor":0.03,"roughnessFactor":0.84}},{"pbrMetallicRoughness":{"baseColorFactor":[0.19461783043107173,0.14412847084818123,0.11193242782769693,1],"metallicFactor":0.03,"roughnessFactor":0.84}},{"pbrMetallicRoughness":{"baseColorFactor":[0.19461783043107173,0.14412847084818123,0.11193242782769693,1],"metallicFactor":0.03,"roughnessFactor":0.84}},{"pbrMetallicRoughness":{"baseColorFactor":[0.19461783043107173,0.14412847084818123,0.11193242782769693,1],"metallicFactor":0.03,"roughnessFactor":0.84}},{"pbrMetallicRoughness":{"baseColorFactor":[0.19461783043107173,0.14412847084818123,0.11193242782769693,1],"metallicFactor":0.03,"roughnessFactor":0.84}},{"pbrMetallicRoughness":{"baseColorFactor":[0.19461783043107173,0.14412847084818123,0.11193242782769693,1],"metallicFactor":0.03,"roughnessFactor":0.84}},{"pbrMetallicRoughness":{"baseColorFactor":[0.19461783043107173,0.14412847084818123,0.11193242782769693,1],"metallicFactor":0.03,"roughnessFactor":0.84}},{"pbrMetallicRoughness":{"baseColorFactor":[0.19461783043107173,0.14412847084818123,0.11193242782769693,1],"metallicFactor":0.03,"roughnessFactor":0.84}},{"pbrMetallicRoughness":{"baseColorFactor":[0.19461783043107173,0.14412847084818123,0.11193242782769693,1],"metallicFactor":0.03,"roughnessFactor":0.84}},{"pbrMetallicRoughness":{"baseColorFactor":[0.19461783043107173,0.14412847084818123,0.11193242782769693,1],"metallicFactor":0.03,"roughnessFactor":0.84}},{"pbrMetallicRoughness":{"baseColorFactor":[0.19461783043107173,0.14412847084818123,0.11193242782769693,1],"metallicFactor":0.03,"roughnessFactor":0.84}},{"pbrMetallicRoughness":{"baseColorFactor":[0.19461783043107173,0.14412847084818123,0.11193242782769693,1],"metallicFactor":0.03,"roughnessFactor":0.84}},{"pbrMetallicRoughness":{"baseColorFactor":[0.19461783043107173,0.14412847084818123,0.11193242782769693,1],"metallicFactor":0.03,"roughnessFactor":0.84}},{"pbrMetallicRoughness":{"baseColorFactor":[0.19461783043107173,0.14412847084818123,0.11193242782769693,1],"metallicFactor":0.03,"roughnessFactor":0.84}},{"pbrMetallicRoughness":{"baseColorFactor":[0.3967552307153359,0.2746773120495699,0.1912016827303171,1],"metallicFactor":0.16,"roughnessFactor":0.75}},{"pbrMetallicRoughness":{"baseColorFactor":[0.3967552307153359,0.2746773120495699,0.1912016827303171,1],"metallicFactor":0.16,"roughnessFactor":0.75}},{"pbrMetallicRoughness":{"baseColorFactor":[0.3967552307153359,0.2746773120495699,0.1912016827303171,1],"metallicFactor":0.16,"roughnessFactor":0.75}},{"pbrMetallicRoughness":{"baseColorFactor":[0.3967552307153359,0.2746773120495699,0.1912016827303171,1],"metallicFactor":0.16,"roughnessFactor":0.75}},{"pbrMetallicRoughness":{"baseColorFactor":[0.3967552307153359,0.2746773120495699,0.1912016827303171,1],"metallicFactor":0.16,"roughnessFactor":0.75}},{"pbrMetallicRoughness":{"baseColorFactor":[0.3967552307153359,0.2746773120495699,0.1912016827303171,1],"metallicFactor":0.16,"roughnessFactor":0.75}},{"pbrMetallicRoughness":{"baseColorFactor":[0.3967552307153359,0.2746773120495699,0.1912016827303171,1],"metallicFactor":0.16,"roughnessFactor":0.75}},{"pbrMetallicRoughness":{"baseColorFactor":[0.3967552307153359,0.2746773120495699,0.1912016827303171,1],"metallicFactor":0.16,"roughnessFactor":0.75}},{"pbrMetallicRoughness":{"baseColorFactor":[0.3967552307153359,0.2746773120495699,0.1912016827303171,1],"metallicFactor":0.16,"roughnessFactor":0.75}},{"pbrMetallicRoughness":{"baseColorFactor":[0.3967552307153359,0.2746773120495699,0.1912016827303171,1],"metallicFactor":0.16,"roughnessFactor":0.75}},{"pbrMetallicRoughness":{"baseColorFactor":[0.3967552307153359,0.2746773120495699,0.1912016827303171,1],"metallicFactor":0.16,"roughnessFactor":0.75}},{"pbrMetallicRoughness":{"baseColorFactor":[0.3967552307153359,0.2746773120495699,0.1912016827303171,1],"metallicFactor":0.16,"roughnessFactor":0.75}},{"pbrMetallicRoughness":{"baseColorFactor":[0.3967552307153359,0.2746773120495699,0.1912016827303171,1],"metallicFactor":0.16,"roughnessFactor":0.75}},{"pbrMetallicRoughness":{"baseColorFactor":[0.3967552307153359,0.2746773120495699,0.1912016827303171,1],"metallicFactor":0.16,"roughnessFactor":0.75}},{"pbrMetallicRoughness":{"baseColorFactor":[0.3967552307153359,0.2746773120495699,0.1912016827303171,1],"metallicFactor":0.16,"roughnessFactor":0.75}},{"pbrMetallicRoughness":{"baseColorFactor":[0.3967552307153359,0.2746773120495699,0.1912016827303171,1],"metallicFactor":0.16,"roughnessFactor":0.75}},{"pbrMetallicRoughness":{"baseColorFactor":[0.3967552307153359,0.2746773120495699,0.1912016827303171,1],"metallicFactor":0.16,"roughnessFactor":0.75}},{"pbrMetallicRoughness":{"baseColorFactor":[0.3967552307153359,0.2746773120495699,0.1912016827303171,1],"metallicFactor":0.16,"roughnessFactor":0.75}},{"pbrMetallicRoughness":{"baseColorFactor":[0.3967552307153359,0.2746773120495699,0.1912016827303171,1],"metallicFactor":0.16,"roughnessFactor":0.75}},{"pbrMetallicRoughness":{"baseColorFactor":[0.3967552307153359,0.2746773120495699,0.1912016827303171,1],"metallicFactor":0.16,"roughnessFactor":0.75}},{"pbrMetallicRoughness":{"baseColorFactor":[0.3967552307153359,0.2746773120495699,0.1912016827303171,1],"metallicFactor":0.16,"roughnessFactor":0.75}},{"pbrMetallicRoughness":{"baseColorFactor":[0.3967552307153359,0.2746773120495699,0.1912016827303171,1],"metallicFactor":0.16,"roughnessFactor":0.75}},{"pbrMetallicRoughness":{"baseColorFactor":[0.3967552307153359,0.2746773120495699,0.1912016827303171,1],"metallicFactor":0.16,"roughnessFactor":0.75}},{"pbrMetallicRoughness":{"baseColorFactor":[0.3967552307153359,0.2746773120495699,0.1912016827303171,1],"metallicFactor":0.16,"roughnessFactor":0.75}},{"pbrMetallicRoughness":{"baseColorFactor":[0.3967552307153359,0.2746773120495699,0.1912016827303171,1],"metallicFactor":0.16,"roughnessFactor":0.75}},{"pbrMetallicRoughness":{"baseColorFactor":[0.3967552307153359,0.2746773120495699,0.1912016827303171,1],"metallicFactor":0.16,"roughnessFactor":0.75}}],"meshes":[{"primitives":[{"mode":4,"attributes":{"POSITION":0,"NORMAL":1,"TEXCOORD_0":2},"indices":3,"material":0}]},{"primitives":[{"mode":4,"attributes":{"POSITION":4,"NORMAL":5,"TEXCOORD_0":6},"material":1}]},{"primitives":[{"mode":4,"attributes":{"POSITION":7,"NORMAL":8,"TEXCOORD_0":9},"material":2}]},{"primitives":[{"mode":4,"attributes":{"POSITION":10,"NORMAL":11,"TEXCOORD_0":12},"material":3}]},{"primitives":[{"mode":4,"attributes":{"POSITION":13,"NORMAL":14,"TEXCOORD_0":15},"material":4}]},{"primitives":[{"mode":4,"attributes":{"POSITION":16,"NORMAL":17,"TEXCOORD_0":18},"material":5}]},{"primitives":[{"mode":4,"attributes":{"POSITION":19,"NORMAL":20,"TEXCOORD_0":21},"material":6}]},{"primitives":[{"mode":4,"attributes":{"POSITION":22,"NORMAL":23,"TEXCOORD_0":24},"material":7}]},{"primitives":[{"mode":4,"attributes":{"POSITION":25,"NORMAL":26,"TEXCOORD_0":27},"material":8}]},{"primitives":[{"mode":4,"attributes":{"POSITION":28,"NORMAL":29,"TEXCOORD_0":30},"material":9}]},{"primitives":[{"mode":4,"attributes":{"POSITION":31,"NORMAL":32,"TEXCOORD_0":33},"material":10}]},{"primitives":[{"mode":4,"attributes":{"POSITION":34,"NORMAL":35,"TEXCOORD_0":36},"material":11}]},{"primitives":[{"mode":4,"attributes":{"POSITION":37,"NORMAL":38,"TEXCOORD_0":39},"material":12}]},{"primitives":[{"mode":4,"attributes":{"POSITION":40,"NORMAL":41,"TEXCOORD_0":42},"material":13}]},{"primitives":[{"mode":4,"attributes":{"POSITION":43,"NORMAL":44,"TEXCOORD_0":45},"material":14}]},{"primitives":[{"mode":4,"attributes":{"POSITION":46,"NORMAL":47,"TEXCOORD_0":48},"material":15}]},{"primitives":[{"mode":4,"attributes":{"POSITION":49,"NORMAL":50,"TEXCOORD_0":51},"material":16}]},{"primitives":[{"mode":4,"attributes":{"POSITION":52,"NORMAL":53,"TEXCOORD_0":54},"material":17}]},{"primitives":[{"mode":4,"attributes":{"POSITION":55,"NORMAL":56,"TEXCOORD_0":57},"material":18}]},{"primitives":[{"mode":4,"attributes":{"POSITION":58,"NORMAL":59,"TEXCOORD_0":60},"material":19}]},{"primitives":[{"mode":4,"attributes":{"POSITION":61,"NORMAL":62,"TEXCOORD_0":63},"material":20}]},{"primitives":[{"mode":4,"attributes":{"POSITION":64,"NORMAL":65,"TEXCOORD_0":66},"material":21}]},{"primitives":[{"mode":4,"attributes":{"POSITION":67,"NORMAL":68,"TEXCOORD_0":69},"material":22}]},{"primitives":[{"mode":4,"attributes":{"POSITION":70,"NORMAL":71,"TEXCOORD_0":72},"material":23}]},{"primitives":[{"mode":4,"attributes":{"POSITION":73,"NORMAL":74,"TEXCOORD_0":75},"material":24}]},{"primitives":[{"mode":4,"attributes":{"POSITION":76,"NORMAL":77,"TEXCOORD_0":78},"material":25}]},{"primitives":[{"mode":4,"attributes":{"POSITION":79,"NORMAL":80,"TEXCOORD_0":81},"material":26}]},{"primitives":[{"mode":4,"attributes":{"POSITION":82,"NORMAL":83,"TEXCOORD_0":84},"material":27}]},{"primitives":[{"mode":4,"attributes":{"POSITION":85,"NORMAL":86,"TEXCOORD_0":87},"material":28}]},{"primitives":[{"mode":4,"attributes":{"POSITION":88,"NORMAL":89,"TEXCOORD_0":90},"indices":91,"material":29}]},{"primitives":[{"mode":4,"attributes":{"POSITION":92,"NORMAL":93,"TEXCOORD_0":94},"indices":95,"material":30}]},{"primitives":[{"mode":4,"attributes":{"POSITION":96,"NORMAL":97,"TEXCOORD_0":98},"indices":99,"material":31}]},{"primitives":[{"mode":4,"attributes":{"POSITION":100,"NORMAL":101,"TEXCOORD_0":102},"indices":103,"material":32}]},{"primitives":[{"mode":4,"attributes":{"POSITION":104,"NORMAL":105,"TEXCOORD_0":106},"indices":107,"material":33}]},{"primitives":[{"mode":4,"attributes":{"POSITION":108,"NORMAL":109,"TEXCOORD_0":110},"indices":111,"material":34}]},{"primitives":[{"mode":4,"attributes":{"POSITION":112,"NORMAL":113,"TEXCOORD_0":114},"indices":115,"material":35}]},{"primitives":[{"mode":4,"attributes":{"POSITION":116,"NORMAL":117,"TEXCOORD_0":118},"indices":119,"material":36}]},{"primitives":[{"mode":4,"attributes":{"POSITION":120,"NORMAL":121,"TEXCOORD_0":122},"indices":123,"material":37}]},{"primitives":[{"mode":4,"attributes":{"POSITION":124,"NORMAL":125,"TEXCOORD_0":126},"indices":127,"material":38}]},{"primitives":[{"mode":4,"attributes":{"POSITION":128,"NORMAL":129,"TEXCOORD_0":130},"indices":131,"material":39}]},{"primitives":[{"mode":4,"attributes":{"POSITION":132,"NORMAL":133,"TEXCOORD_0":134},"indices":135,"material":40}]},{"primitives":[{"mode":4,"attributes":{"POSITION":136,"NORMAL":137,"TEXCOORD_0":138},"indices":139,"material":41}]},{"primitives":[{"mode":4,"attributes":{"POSITION":140,"NORMAL":141,"TEXCOORD_0":142},"indices":143,"material":42}]},{"primitives":[{"mode":4,"attributes":{"POSITION":144,"NORMAL":145,"TEXCOORD_0":146},"indices":147,"material":43}]},{"primitives":[{"mode":4,"attributes":{"POSITION":148,"NORMAL":149,"TEXCOORD_0":150},"indices":151,"material":44}]},{"primitives":[{"mode":4,"attributes":{"POSITION":152,"NORMAL":153,"TEXCOORD_0":154},"indices":155,"material":45}]},{"primitives":[{"mode":4,"attributes":{"POSITION":156,"NORMAL":157,"TEXCOORD_0":158},"indices":159,"material":46}]},{"primitives":[{"mode":4,"attributes":{"POSITION":160,"NORMAL":161,"TEXCOORD_0":162},"indices":163,"material":47}]},{"primitives":[{"mode":4,"attributes":{"POSITION":164,"NORMAL":165,"TEXCOORD_0":166},"indices":167,"material":48}]},{"primitives":[{"mode":4,"attributes":{"POSITION":168,"NORMAL":169,"TEXCOORD_0":170},"indices":171,"material":49}]},{"primitives":[{"mode":4,"attributes":{"POSITION":172,"NORMAL":173,"TEXCOORD_0":174},"indices":175,"material":50}]},{"primitives":[{"mode":4,"attributes":{"POSITION":176,"NORMAL":177,"TEXCOORD_0":178},"indices":179,"material":51}]},{"primitives":[{"mode":4,"attributes":{"POSITION":180,"NORMAL":181,"TEXCOORD_0":182},"indices":183,"material":52}]},{"primitives":[{"mode":4,"attributes":{"POSITION":184,"NORMAL":185,"TEXCOORD_0":186},"indices":187,"material":53}]},{"primitives":[{"mode":4,"attributes":{"POSITION":188,"NORMAL":189,"TEXCOORD_0":190},"indices":191,"material":54}]}],"extensionsUsed":["KHR_lights_punctual"]}