{"asset":{"version":"2.0","generator":"THREE.GLTFExporter r167"},"scenes":[{"nodes":[1,3,4,5,6,7,8,9,10,11,12,13,14,15,16,17,18,19,20,21,22,23,24,25,26,27,28,29,30,31,32,33,34,35,36,37,38,39,40,41,42,43,44,45,46,47,48,49,50,51,52,53,54,55,56,57,58]}],"scene":0,"nodes":[{"matrix":[1,0,0,0,0,1,0,0,0,0,1,0,0,0,-1,1]},{"matrix":[1,0,0,0,0,1,0,0,0,0,1,0,24,36,16,1],"children":[0],"extensions":{"KHR_lights_punctual":{"light":0}}},{"matrix":[1,0,0,0,0,1,0,0,0,0,1,0,0,0,-1,1]},{"matrix":[1,0,0,0,0,1,0,0,0,0,1,0,-18,22,-14,1],"children":[2],"extensions":{"KHR_lights_punctual":{"light":1}}},{"matrix":[1,0,0,0,0,2.220446049250313e-16,-1,0,0,1,2.220446049250313e-16,0,0,-1.25,0,1],"mesh":0},{"matrix":[1.2,0,0,0,0,1.3726013185985264,0,0,0,0,1.2,0,169.279541873671,7.205224122566923,0,1],"mesh":1},{"matrix":[1.2,0,0,0,0,1.023128388878263,0,0,0,0,1.2,0,157.3952605164762,5.052470875490101,35.92444111282332,1],"mesh":2},{"matrix":[1.2,0,0,0,0,1.1973837134464562,0,0,0,0,1.2,0,114.42123128194714,6.125883674830171,55.10236083809176,1],"mesh":3},{"matrix":[1.2,0,0,0,0,2.554037067639015,0,0,0,0,1.2,0,94.05415470528203,14.482868336656335,75.00568549129116,1],"mesh":4},{"matrix":[1.2,0,0,0,0,1.4375083201144185,0,0,0,0,1.2,0,72.02180147496895,7.605051251904818,90.31248249662829,1],"mesh":5},{"matrix":[1.2,0,0,0,0,1.916286416480469,0,0,0,0,1.2,0,68.3175887182261,10.55432432551969,141.86293473562537,1],"mesh":6},{"matrix":[1.2,0,0,0,0,1.9158861409803924,0,0,0,0,1.2,0,24.96369218911759,10.551858628439218,109.37308177514721,1],"mesh":7},{"matrix":[1.2,0,0,0,0,1.0288290309532866,0,0,0,0,1.2,0,1.008515537257648e-14,5.0875868306722465,164.70308630371073,1],"mesh":8},{"matrix":[1.2,0,0,0,0,1.0840348009723744,0,0,0,0,1.2,0,-33.06325291390224,5.427654373989826,144.85957595171064,1],"mesh":9},{"matrix":[1.2,0,0,0,0,2.058009640898685,0,0,0,0,1.2,0,-65.04399251907194,11.4273393879359,135.06524218434387,1],"mesh":10},{"matrix":[1.2,0,0,0,0,1.2283995715078388,0,0,0,0,1.2,0,-96.84058969913488,6.316941360488289,121.43425855858256,1],"mesh":11},{"matrix":[1.2,0,0,0,0,2.2432043137891395,0,0,0,0,1.2,0,-134.11557831707492,12.568138572941102,106.95360474244123,1],"mesh":12},{"matrix":[1.2,0,0,0,0,1.9153107553311628,0,0,0,0,1.2,0,-145.26994779090657,10.548314252839964,69.95831973159545,1],"mesh":13},{"matrix":[1.2,0,0,0,0,1.5065505701365298,0,0,0,0,1.2,0,-134.0795877541191,8.030351512041024,30.602790953799158,1],"mesh":14},{"matrix":[1.2,0,0,0,0,1.3109410731845863,0,0,0,0,1.2,0,-146.99317029840154,6.825397010817053,1.8001471550245923e-14,1],"mesh":15},{"matrix":[1.2,0,0,0,0,1.5740411332874993,0,0,0,0,1.2,0,-164.3233143400984,8.446093381050996,-37.50572418828878,1],"mesh":16},{"matrix":[1.2,0,0,0,0,2.1035357788234545,0,0,0,0,1.2,0,-101.81310629136932,11.707780397552483,-49.03060785187657,1],"mesh":17},{"matrix":[1.2,0,0,0,0,1.5170722238399383,0,0,0,0,1.2,0,-98.24175673326836,8.095164898854021,-78.34518667184015,1],"mesh":18},{"matrix":[1.2,0,0,0,0,2.3915518614401505,0,0,0,0,1.2,0,-94.62772287522499,13.481959466471329,-118.65941132886984,1],"mesh":19},{"matrix":[1.2,0,0,0,0,1.168991855893007,0,0,0,0,1.2,0,-53.05796076449835,5.950989832300924,-110.1759907859763,1],"mesh":20},{"matrix":[1.2,0,0,0,0,2.628615433644731,0,0,0,0,1.2,0,-38.84747587190577,14.942271071251547,-170.20191256597099,1],"mesh":21},{"matrix":[1.2,0,0,0,0,2.598466314662907,0,0,0,0,1.2,0,-2.400035451911506e-14,14.756552498323508,-130.6518447377374,1],"mesh":22},{"matrix":[1.2,0,0,0,0,2.4434791170881525,0,0,0,0,1.2,0,29.49962106704938,13.801831361263021,-129.2462846785445,1],"mesh":23},{"matrix":[1.2,0,0,0,0,1.4578466317412426,0,0,0,0,1.2,0,66.16755449099514,7.730335251526055,-137.3983426594175,1],"mesh":24},{"matrix":[1.2,0,0,0,0,2.0622521564297713,0,0,0,0,1.2,0,107.36111719730079,11.453473283607392,-134.62658277257245,1],"mesh":25},{"matrix":[1.2,0,0,0,0,2.570171429633245,0,0,0,0,1.2,0,89.3260972156406,14.582256006540794,-71.235185462196,1],"mesh":26},{"matrix":[1.2,0,0,0,0,1.7874487146705966,0,0,0,0,1.2,0,148.68771849219104,9.760684082370876,-71.60423135423808,1],"mesh":27},{"matrix":[1.2,0,0,0,0,2.482078849513737,0,0,0,0,1.2,0,113.58958267418119,14.039605713004622,-25.926081004082324,1],"mesh":28},{"matrix":[1,0,0,0,0,1,0,0,0,0,1,0,-23.027515205264795,1.6552952031966521,-16.70629278296376,1],"mesh":29},{"matrix":[1,0,0,0,0,1,0,0,0,0,1,0,-1.1406295535149753,0.06898065241262796,28.20761470858816,1],"mesh":30},{"matrix":[1,0,0,0,0,1,0,0,0,0,1,0,-1.502250939971622,2.694374356231273,-27.584995941310176,1],"mesh":31},{"matrix":[1,0,0,0,0,1,0,0,0,0,1,0,48.67518342189257,1.0619854031042162,-31.64483912534091,1],"mesh":32},{"matrix":[1,0,0,0,0,1,0,0,0,0,1,0,72.60470728209309,1.1749531949113479,-39.87097935174782,1],"mesh":33},{"matrix":[1,0,0,0,0,1,0,0,0,0,1,0,34.5003124367256,2.533827715514653,-8.301985566998964,1],"mesh":34},{"matrix":[1,0,0,0,0,1,0,0,0,0,1,0,-15.64237326234254,1.335959179940624,-31.562912331625366,1],"mesh":35},{"matrix":[1,0,0,0,0,1,0,0,0,0,1,0,-11.489622494834405,1.093247060289897,-38.655949743066714,1],"mesh":36},{"matrix":[1,0,0,0,0,1,0,0,0,0,1,0,75.13322098969087,0.6119984813760961,-10.00453220265907,1],"mesh":37},{"matrix":[1,0,0,0,0,1,0,0,0,0,1,0,-39.76582868752899,-0.021354004443007057,-68.476114100489,1],"mesh":38},{"matrix":[1,0,0,0,0,1,0,0,0,0,1,0,26.005128293648834,1.4950747313897765,-24.704993705922426,1],"mesh":39},{"matrix":[1,0,0,0,0,1,0,0,0,0,1,0,-33.16665176687703,0.007308914816777534,-15.586822984913075,1],"mesh":40},{"matrix":[1,0,0,0,0,1,0,0,0,0,1,0,2.7363124204926264,2.571307772181767,29.874324584552355,1],"mesh":41},{"matrix":[1,0,0,0,0,1,0,0,0,0,1,0,-22.2551514733787,0.49962079715906205,43.4975842714681,1],"mesh":42},{"matrix":[1,0,0,0,0,1,0,0,0,0,1,0,-33.21497931037712,2.332652406867745,0.9901015889397332,1],"mesh":43},{"matrix":[1,0,0,0,0,1,0,0,0,0,1,0,48.87076865054563,1.778285957844529,33.9136448430304,1],"mesh":44},{"matrix":[1,0,0,0,0,1,0,0,0,0,1,0,-64.60404436941212,1.7636171500812323,-16.704260148069938,1],"mesh":45},{"matrix":[1,0,0,0,0,1,0,0,0,0,1,0,-41.50391704654878,0.8425467972975564,19.86842064654356,1],"mesh":46},{"matrix":[1,0,0,0,0,1,0,0,0,0,1,0,-51.08380810487859,0.10298297698678982,-34.78337712868404,1],"mesh":47},{"matrix":[1,0,0,0,0,1,0,0,0,0,1,0,-44.84062291171076,2.6174025537253827,18.415642835282323,1],"mesh":48},{"matrix":[1,0,0,0,0,1,0,0,0,0,1,0,7.142682259887918,0.5805220746157045,21.10171159976334,1],"mesh":49},{"matrix":[1,0,0,0,0,1,0,0,0,0,1,0,57.887982158287215,1.9778280489327917,23.566494861737528,1],"mesh":50},{"matrix":[1,0,0,0,0,1,0,0,0,0,1,0,5.169354435041951,0.9287165896568252,51.01072490730583,1],"mesh":51},{"matrix":[1,0,0,0,0,1,0,0,0,0,1,0,-31.517693358902687,0.9479924423266186,31.816953897390228,1],"mesh":52},{"matrix":[1,0,0,0,0,1,0,0,0,0,1,0,55.31548393309786,2.2694773805256645,10.595835114788478,1],"mesh":53},{"matrix":[1,0,0,0,0,1,0,0,0,0,1,0,30.133643889000318,2.275477979419631,-6.833515228996419,1],"mesh":54}],"extensions":{"KHR_lights_punctual":{"lights":[{"color":[1,0.8631572134510892,0.6724431569510133],"intensity":1.3,"type":"directional"},{"color":[0.6795424696265424,0.7991027380100881,1],"intensity":0.4,"type":"directional"}]}},"bufferViews":[{"buffer":0,"byteOffset":0,"byteLength":112908,"target":34962,"byteStride":12},{"buffer":0,"byteOffset":112908,"byteLength":112908,"target":34962,"byteStride":12},{"buffer":0,"byteOffset":225816,"byteLength":75272,"target":34962,"byteStride":8},{"buffer":0,"byteOffset":301088,"byteLength":110592,"target":34963},{"buffer":0,"byteOffset":411680,"byteLength":2880,"target":34962,"byteStride":12},{"buffer":0,"byteOffset":414560,"byteLength":2880,"target":34962,"byteStride":12},{"buffer":0,"byteOffset":417440,"byteLength":1920,"target":34962,"byteStride":8},{"buffer":0,"byteOffset":419360,"byteLength":2880,"target":34962,"byteStride":12},{"buffer":0,"byteOffset":422240,"byteLength":2880,"target":34962,"byteStride":12},{"buffer":0,"byteOffset":425120,"byteLength":1920,"target":34962,"byteStride":8},{"buffer":0,"byteOffset":427040,"byteLength":2880,"target":34962,"byteStride":12},{"buffer":0,"byteOffset":429920,"byteLength":2880,"target":34962,"byteStride":12},{"buffer":0,"byteOffset":432800,"byteLength":1920,"target":34962,"byteStride":8},{"buffer":0,"byteOffset":434720,"byteLength":2880,"target":34962,"byteStride":12},{"buffer":0,"byteOffset":437600,"byteLength":2880,"target":34962,"byteStride":12},{"buffer":0,"byteOffset":440480,"byteLength":1920,"target":34962,"byteStride":8},{"buffer":0,"byteOffset":442400,"byteLength":2880,"target":34962,"byteStride":12},{"buffer":0,"byteOffset":445280,"byteLength":2880,"target":34962,"byteStride":12},{"buffer":0,"byteOffset":448160,"byteLength":1920,"target":34962,"byteStride":8},{"buffer":0,"byteOffset":450080,"byteLength":2880,"target":34962,"byteStride":12},{"buffer":0,"byteOffset":452960,"byteLength":2880,"target":34962,"byteStride":12},{"buffer":0,"byteOffset":455840,"byteLength":1920,"target":34962,"byteStride":8},{"buffer":0,"byteOffset":457760,"byteLength":2880,"target":34962,"byteStride":12},{"buffer":0,"byteOffset":460640,"byteLength":2880,"target":34962,"byteStride":12},{"buffer":0,"byteOffset":463520,"byteLength":1920,"target":34962,"byteStride":8},{"buffer":0,"byteOffset":465440,"byteLength":2880,"target":34962,"byteStride":12},{"buffer":0,"byteOffset":468320,"byteLength":2880,"target":34962,"byteStride":12},{"buffer":0,"byteOffset":471200,"byteLength":1920,"target":34962,"byteStride":8},{"buffer":0,"byteOffset":473120,"byteLength":2880,"target":34962,"byteStride":12},{"buffer":0,"byteOffset":476000,"byteLength":2880,"target":34962,"byteStride":12},{"buffer":0,"byteOffset":478880,"byteLength":1920,"target":34962,"byteStride":8},{"buffer":0,"byteOffset":480800,"byteLength":2880,"target":34962,"byteStride":12},{"buffer":0,"byteOffset":483680,"byteLength":2880,"target":34962,"byteStride":12},{"buffer":0,"byteOffset":486560,"byteLength":1920,"target":34962,"byteStride":8},{"buffer":0,"byteOffset":488480,"byteLength":2880,"target":34962,"byteStride":12},{"buffer":0,"byteOffset":491360,"byteLength":2880,"target":34962,"byteStride":12},{"buffer":0,"byteOffset":494240,"byteLength":1920,"target":34962,"byteStride":8},{"buffer":0,"byteOffset":496160,"byteLength":2880,"target":34962,"byteStride":12},{"buffer":0,"byteOffset":499040,"byteLength":2880,"target":34962,"byteStride":12},{"buffer":0,"byteOffset":501920,"byteLength":1920,"target":34962,"byteStride":8},{"buffer":0,"byteOffset":503840,"byteLength":2880,"target":34962,"byteStride":12},{"buffer":0,"byteOffset":506720,"byteLength":2880,"target":34962,"byteStride":12},{"buffer":0,"byteOffset":509600,"byteLength":1920,"target":34962,"byteStride":8},{"buffer":0,"byteOffset":511520,"byteLength":2880,"target":34962,"byteStride":12},{"buffer":0,"byteOffset":514400,"byteLength":2880,"target":34962,"byteStride":12},{"buffer":0,"byteOffset":517280,"byteLength":1920,"target":34962,"byteStride":8},{"buffer":0,"byteOffset":519200,"byteLength":2880,"target":34962,"byteStride":12},{"buffer":0,"byteOffset":522080,"byteLength":2880,"target":34962,"byteStride":12},{"buffer":0,"byteOffset":524960,"byteLength":1920,"target":34962,"byteStride":8},{"buffer":0,"byteOffset":526880,"byteLength":2880,"target":34962,"byteStride":12},{"buffer":0,"byteOffset":529760,"byteLength":2880,"target":34962,"byteStride":12},{"buffer":0,"byteOffset":532640,"byteLength":1920,"target":34962,"byteStride":8},{"buffer":0,"byteOffset":534560,"byteLength":2880,"target":34962,"byteStride":12},{"buffer":0,"byteOffset":537440,"byteLength":2880,"target":34962,"byteStride":12},{"buffer":0,"byteOffset":540320,"byteLength":1920,"target":34962,"byteStride":8},{"buffer":0,"byteOffset":542240,"byteLength":2880,"target":34962,"byteStride":12},{"buffer":0,"byteOffset":545120,"byteLength":2880,"target":34962,"byteStride":12},{"buffer":0,"byteOffset":548000,"byteLength":1920,"target":34962,"byteStride":8},{"buffer":0,"byteOffset":549920,"byteLength":2880,"target":34962,"byteStride":12},{"buffer":0,"byteOffset":552800,"byteLength":2880,"target":34962,"byteStride":12},{"buffer":0,"byteOffset":555680,"byteLength":1920,"target":34962,"byteStride":8},{"buffer":0,"byteOffset":557600,"byteLength":2880,"target":34962,"byteStride":12},{"buffer":0,"byteOffset":560480,"byteLength":2880,"target":34962,"byteStride":12},{"buffer":0,"byteOffset":563360,"byteLength":1920,"target":34962,"byteStride":8},{"buffer":0,"byteOffset":565280,"byteLength":2880,"target":34962,"byteStride":12},{"buffer":0,"byteOffset":568160,"byteLength":2880,"target":34962,"byteStride":12},{"buffer":0,"byteOffset":571040,"byteLength":1920,"target":34962,"byteStride":8},{"buffer":0,"byteOffset":572960,"byteLength":2880,"target":34962,"byteStride":12},{"buffer":0,"byteOffset":575840,"byteLength":2880,"target":34962,"byteStride":12},{"buffer":0,"byteOffset":578720,"byteLength":1920,"target":34962,"byteStride":8},{"buffer":0,"byteOffset":580640,"byteLength":2880,"target":34962,"byteStride":12},{"buffer":0,"byteOffset":583520,"byteLength":2880,"target":34962,"byteStride":12},{"buffer":0,"byteOffset":586400,"byteLength":1920,"target":34962,"byteStride":8},{"buffer":0,"byteOffset":588320,"byteLength":2880,"target":34962,"byteStride":12},{"buffer":0,"byteOffset":591200,"byteLength":2880,"target":34962,"byteStride":12},{"buffer":0,"byteOffset":594080,"byteLength":1920,"target":34962,"byteStride":8},{"buffer":0,"byteOffset":596000,"byteLength":2880,"target":34962,"byteStride":12},{"buffer":0,"byteOffset":598880,"byteLength":2880,"target":34962,"byteStride":12},{"buffer":0,"byteOffset":601760,"byteLength":1920,"target":34962,"byteStride":8},{"buffer":0,"byteOffset":603680,"byteLength":2880,"target":34962,"byteStride":12},{"buffer":0,"byteOffset":606560,"byteLength":2880,"target":34962,"byteStride":12},{"buffer":0,"byteOffset":609440,"byteLength":1920,"target":34962,"byteStride":8},{"buffer":0,"byteOffset":611360,"byteLength":2880,"target":34962,"byteStride":12},{"buffer":0,"byteOffset":614240,"byteLength":2880,"target":34962,"byteStride":12},{"buffer":0,"byteOffset":617120,"byteLength":1920,"target":34962,"byteStride":8},{"buffer":0,"byteOffset":619040,"byteLength":2880,"target":34962,"byteStride":12},{"buffer":0,"byteOffset":621920,"byteLength":2880,"target":34962,"byteStride":12},{"buffer":0,"byteOffset":624800,"byteLength":1920,"target":34962,"byteStride":8},{"buffer":0,"byteOffset":626720,"byteLength":552,"target":34962,"byteStride":12},{"buffer":0,"byteOffset":627272,"byteLength":552,"target":34962,"byteStride":12},{"buffer":0,"byteOffset":627824,"byteLength":368,"target":34962,"byteStride":8},{"buffer":0,"byteOffset":628192,"byteLength":168,"target":34963},{"buffer":0,"byteOffset":628360,"byteLength":552,"target":34962,"byteStride":12},{"buffer":0,"byteOffset":628912,"byteLength":552,"target":34962,"byteStride":12},{"buffer":0,"byteOffset":629464,"byteLength":368,"target":34962,"byteStride":8},{"buffer":0,"byteOffset":629832,"byteLength":168,"target":34963},{"buffer":0,"byteOffset":630000,"byteLength":552,"target":34962,"byteStride":12},{"buffer":0,"byteOffset":630552,"byteLength":552,"target":34962,"byteStride":12},{"buffer":0,"byteOffset":631104,"byteLength":368,"target":34962,"byteStride":8},{"buffer":0,"byteOffset":631472,"byteLength":168,"target":34963},{"buffer":0,"byteOffset":631640,"byteLength":552,"target":34962,"byteStride":12},{"buffer":0,"byteOffset":632192,"byteLength":552,"target":34962,"byteStride":12},{"buffer":0,"byteOffset":632744,"byteLength":368,"target":34962,"byteStride":8},{"buffer":0,"byteOffset":633112,"byteLength":168,"target":34963},{"buffer":0,"byteOffset":633280,"byteLength":552,"target":34962,"byteStride":12},{"buffer":0,"byteOffset":633832,"byteLength":552,"target":34962,"byteStride":12},{"buffer":0,"byteOffset":634384,"byteLength":368,"target":34962,"byteStride":8},{"buffer":0,"byteOffset":634752,"byteLength":168,"target":34963},{"buffer":0,"byteOffset":634920,"byteLength":552,"target":34962,"byteStride":12},{"buffer":0,"byteOffset":635472,"byteLength":552,"target":34962,"byteStride":12},{"buffer":0,"byteOffset":636024,"byteLength":368,"target":34962,"byteStride":8},{"buffer":0,"byteOffset":636392,"byteLength":168,"target":34963},{"buffer":0,"byteOffset":636560,"byteLength":552,"target":34962,"byteStride":12},{"buffer":0,"byteOffset":637112,"byteLength":552,"target":34962,"byteStride":12},{"buffer":0,"byteOffset":637664,"byteLength":368,"target":34962,"byteStride":8},{"buffer":0,"byteOffset":638032,"byteLength":168,"target":34963},{"buffer":0,"byteOffset":638200,"byteLength":552,"target":34962,"byteStride":12},{"buffer":0,"byteOffset":638752,"byteLength":552,"target":34962,"byteStride":12},{"buffer":0,"byteOffset":639304,"byteLength":368,"target":34962,"byteStride":8},{"buffer":0,"byteOffset":639672,"byteLength":168,"target":34963},{"buffer":0,"byteOffset":639840,"byteLength":552,"target":34962,"byteStride":12},{"buffer":0,"byteOffset":640392,"byteLength":552,"target":34962,"byteStride":12},{"buffer":0,"byteOffset":640944,"byteLength":368,"target":34962,"byteStride":8},{"buffer":0,"byteOffset":641312,"byteLength":168,"target":34963},{"buffer":0,"byteOffset":641480,"byteLength":552,"target":34962,"byteStride":12},{"buffer":0,"byteOffset":642032,"byteLength":552,"target":34962,"byteStride":12},{"buffer":0,"byteOffset":642584,"byteLength":368,"target":34962,"byteStride":8},{"buffer":0,"byteOffset":642952,"byteLength":168,"target":34963},{"buffer":0,"byteOffset":643120,"byteLength":552,"target":34962,"byteStride":12},{"buffer":0,"byteOffset":643672,"byteLength":552,"target":34962,"byteStride":12},{"buffer":0,"byteOffset":644224,"byteLength":368,"target":34962,"byteStride":8},{"buffer":0,"byteOffset":644592,"byteLength":168,"target":34963},{"buffer":0,"byteOffset":644760,"byteLength":552,"target":34962,"byteStride":12},{"buffer":0,"byteOffset":645312,"byteLength":552,"target":34962,"byteStride":12},{"buffer":0,"byteOffset":645864,"byteLength":368,"target":34962,"byteStride":8},{"buffer":0,"byteOffset":646232,"byteLength":168,"target":34963},{"buffer":0,"byteOffset":646400,"byteLength":552,"target":34962,"byteStride":12},{"buffer":0,"byteOffset":646952,"byteLength":552,"target":34962,"byteStride":12},{"buffer":0,"byteOffset":647504,"byteLength":368,"target":34962,"byteStride":8},{"buffer":0,"byteOffset":647872,"byteLength":168,"target":34963},{"buffer":0,"byteOffset":648040,"byteLength":552,"target":34962,"byteStride":12},{"buffer":0,"byteOffset":648592,"byteLength":552,"target":34962,"byteStride":12},{"buffer":0,"byteOffset":649144,"byteLength":368,"target":34962,"byteStride":8},{"buffer":0,"byteOffset":649512,"byteLength":168,"target":34963},{"buffer":0,"byteOffset":649680,"byteLength":552,"target":34962,"byteStride":12},{"buffer":0,"byteOffset":650232,"byteLength":552,"target":34962,"byteStride":12},{"buffer":0,"byteOffset":650784,"byteLength":368,"target":34962,"byteStride":8},{"buffer":0,"byteOffset":651152,"byteLength":168,"target":34963},{"buffer":0,"byteOffset":651320,"byteLength":552,"target":34962,"byteStride":12},{"buffer":0,"byteOffset":651872,"byteLength":552,"target":34962,"byteStride":12},{"buffer":0,"byteOffset":652424,"byteLength":368,"target":34962,"byteStride":8},{"buffer":0,"byteOffset":652792,"byteLength":168,"target":34963},{"buffer":0,"byteOffset":652960,"byteLength":552,"target":34962,"byteStride":12},{"buffer":0,"byteOffset":653512,"byteLength":552,"target":34962,"byteStride":12},{"buffer":0,"byteOffset":654064,"byteLength":368,"target":34962,"byteStride":8},{"buffer":0,"byteOffset":654432,"byteLength":168,"target":34963},{"buffer":0,"byteOffset":654600,"byteLength":552,"target":34962,"byteStride":12},{"buffer":0,"byteOffset":655152,"byteLength":552,"target":34962,"byteStride":12},{"buffer":0,"byteOffset":655704,"byteLength":368,"target":34962,"byteStride":8},{"buffer":0,"byteOffset":656072,"byteLength":168,"target":34963},{"buffer":0,"byteOffset":656240,"byteLength":552,"target":34962,"byteStride":12},{"buffer":0,"byteOffset":656792,"byteLength":552,"target":34962,"byteStride":12},{"buffer":0,"byteOffset":657344,"byteLength":368,"target":34962,"byteStride":8},{"buffer":0,"byteOffset":657712,"byteLength":168,"target":34963},{"buffer":0,"byteOffset":657880,"byteLength":552,"target":34962,"byteStride":12},{"buffer":0,"byteOffset":658432,"byteLength":552,"target":34962,"byteStride":12},{"buffer":0,"byteOffset":658984,"byteLength":368,"target":34962,"byteStride":8},{"buffer":0,"byteOffset":659352,"byteLength":168,"target":34963},{"buffer":0,"byteOffset":659520,"byteLength":552,"target":34962,"byteStride":12},{"buffer":0,"byteOffset":660072,"byteLength":552,"target":34962,"byteStride":12},{"buffer":0,"byteOffset":660624,"byteLength":368,"target":34962,"byteStride":8},{"buffer":0,"byteOffset":660992,"byteLength":168,"target":34963},{"buffer":0,"byteOffset":661160,"byteLength":552,"target":34962,"byteStride":12},{"buffer":0,"byteOffset":661712,"byteLength":552,"target":34962,"byteStride":12},{"buffer":0,"byteOffset":662264,"byteLength":368,"target":34962,"byteStride":8},{"buffer":0,"byteOffset":662632,"byteLength":168,"target":34963},{"buffer":0,"byteOffset":662800,"byteLength":552,"target":34962,"byteStride":12},{"buffer":0,"byteOffset":663352,"byteLength":552,"target":34962,"byteStride":12},{"buffer":0,"byteOffset":663904,"byteLength":368,"target":34962,"byteStride":8},{"buffer":0,"byteOffset":664272,"byteLength":168,"target":34963},{"buffer":0,"byteOffset":664440,"byteLength":552,"target":34962,"byteStride":12},{"buffer":0,"byteOffset":664992,"byteLength":552,"target":34962,"byteStride":12},{"buffer":0,"byteOffset":665544,"byteLength":368,"target":34962,"byteStride":8},{"buffer":0,"byteOffset":665912,"byteLength":168,"target":34963},{"buffer":0,"byteOffset":666080,"byteLength":552,"target":34962,"byteStride":12},{"buffer":0,"byteOffset":666632,"byteLength":552,"target":34962,"byteStride":12},{"buffer":0,"byteOffset":667184,"byteLength":368,"target":34962,"byteStride":8},{"buffer":0,"byteOffset":667552,"byteLength":168,"target":34963},{"buffer":0,"byteOffset":667720,"byteLength":552,"target":34962,"byteStride":12},{"buffer":0,"byteOffset":668272,"byteLength":552,"target":34962,"byteStride":12},{"buffer":0,"byteOffset":668824,"byteLength":368,"target":34962,"byteStride":8},{"buffer":0,"byteOffset":669192,"byteLength":168,"target":34963}],"buffers":[{"byteLength":669360,"uri":"data:application/octet-stream;base64,"}],"accessors":[{"bufferView":0,"componentType":5126,"count":9409,"max":[120,120,8.586920738220215],"min":[-120,-120,-10.178252220153809],"type":"VEC3"},{"bufferView":1,"componentType":5126,"count":9409,"max":[0.9310958981513977,0.930125892162323,0.9999898076057434],"min":[-0.9091535806655884,-0.9438248872756958,0.25779300928115845],"type":"VEC3"},{"bufferView":2,"componentType":5126,"count":9409,"max":[1,1],"min":[0,0],"type":"VEC2"},{"bufferView":3,"componentType":5123,"count":55296,"max":[9408],"min":[0],"type":"SCALAR"},{"bufferView":4,"componentType":5126,"count":240,"max":[17.992034912109375,15.513607025146484,16.35834312438965],"min":[-17.48058319091797,-15.513607025146484,-17.175912857055664],"type":"VEC3"},{"bufferView":5,"componentType":5126,"count":240,"max":[0.918402910232544,0.9921888709068298,0.9582259654998779],"min":[-0.9558064341545105,-0.9921888709068298,-0.9654507040977478],"type":"VEC3"},{"bufferView":6,"componentType":5126,"count":240,"max":[1.0580698251724243,1],"min":[0,0],"type":"VEC2"},{"bufferView":7,"componentType":5126,"count":240,"max":[19.0575008392334,18.551063537597656,20.68021583557129],"min":[-21.978622436523438,-18.551063537597656,-21.692562103271484],"type":"VEC3"},{"bufferView":8,"componentType":5126,"count":240,"max":[0.9662944674491882,0.9785829782485962,0.9507883191108704],"min":[-0.9259436726570129,-0.9785829782485962,-0.9192308783531189],"type":"VEC3"},{"bufferView":9,"componentType":5126,"count":240,"max":[1.0580698251724243,1],"min":[0,0],"type":"VEC2"},{"bufferView":10,"componentType":5126,"count":240,"max":[17.140981674194336,14.848135948181152,15.670830726623535],"min":[-16.000364303588867,-14.848135948181152,-16.521902084350586],"type":"VEC3"},{"bufferView":11,"componentType":5126,"count":240,"max":[0.8987839221954346,0.9910610914230347,0.97723388671875],"min":[-0.974983274936676,-0.9910610914230347,-0.9123915433883667],"type":"VEC3"},{"bufferView":12,"componentType":5126,"count":240,"max":[1.0580698251724243,1],"min":[0,0],"type":"VEC2"},{"bufferView":13,"componentType":5126,"count":240,"max":[16.265106201171875,15.871925354003906,16.814327239990234],"min":[-18.825023651123047,-15.871925354003906,-18.79231071472168],"type":"VEC3"},{"bufferView":14,"componentType":5126,"count":240,"max":[0.9945849180221558,0.9962593913078308,0.9762410521507263],"min":[-0.9126346707344055,-0.9962593913078308,-0.8877640962600708],"type":"VEC3"},{"bufferView":15,"componentType":5126,"count":240,"max":[1.0580698251724243,1],"min":[0,0],"type":"VEC2"},{"bufferView":16,"componentType":5126,"count":240,"max":[22.33651351928711,19.51503562927246,19.861125946044922],"min":[-18.925168991088867,-19.51503562927246,-23.14921760559082],"type":"VEC3"},{"bufferView":17,"componentType":5126,"count":240,"max":[0.9282797574996948,0.995400071144104,0.9886724948883057],"min":[-0.9876283407211304,-0.995400071144104,-0.8933966755867004],"type":"VEC3"},{"bufferView":18,"componentType":5126,"count":240,"max":[1.0580698251724243,1],"min":[0,0],"type":"VEC2"},{"bufferView":19,"componentType":5126,"count":240,"max":[19.836374282836914,16.02488899230957,19.066648483276367],"min":[-16.1699161529541,-16.02488899230957,-15.890499114990234],"type":"VEC3"},{"bufferView":20,"componentType":5126,"count":240,"max":[0.8475466966629028,0.9933644533157349,0.9167635440826416],"min":[-0.9857151508331299,-0.9933644533157349,-0.9871846437454224],"type":"VEC3"},{"bufferView":21,"componentType":5126,"count":240,"max":[1.0580698251724243,1],"min":[0,0],"type":"VEC2"},{"bufferView":22,"componentType":5126,"count":240,"max":[18.888288497924805,16.426286697387695,18.60663414001465],"min":[-17.760589599609375,-16.426286697387695,-19.44864845275879],"type":"VEC3"},{"bufferView":23,"componentType":5126,"count":240,"max":[0.9484225511550903,0.9936538338661194,0.9388753175735474],"min":[-0.9122095704078674,-0.9936538338661194,-0.9593280553817749],"type":"VEC3"},{"bufferView":24,"componentType":5126,"count":240,"max":[1.0580698251724243,1],"min":[0,0],"type":"VEC2"},{"bufferView":25,"componentType":5126,"count":240,"max":[14.267024040222168,14.094603538513184,16.92837142944336],"min":[-16.57649040222168,-14.094603538513184,-15.28292465209961],"type":"VEC3"},{"bufferView":26,"componentType":5126,"count":240,"max":[0.9946447014808655,0.9931824803352356,0.9408795833587646],"min":[-0.8732556700706482,-0.9931824803352356,-0.9849754571914673],"type":"VEC3"},{"bufferView":27,"componentType":5126,"count":240,"max":[1.0580698251724243,1],"min":[0,0],"type":"VEC2"},{"bufferView":28,"componentType":5126,"count":240,"max":[17.230443954467773,14.323858261108398,16.072128295898438],"min":[-15.26112174987793,-14.323858261108398,-14.482149124145508],"type":"VEC3"},{"bufferView":29,"componentType":5126,"count":240,"max":[0.8772045969963074,0.9870651960372925,0.9801414608955383],"min":[-0.9851629137992859,-0.9870651960372925,-0.9606627821922302],"type":"VEC3"},{"bufferView":30,"componentType":5126,"count":240,"max":[1.0580698251724243,1],"min":[0,0],"type":"VEC2"},{"bufferView":31,"componentType":5126,"count":240,"max":[23.528846740722656,22.92679786682129,24.6722469329834],"min":[-25.362342834472656,-22.92679786682129,-25.568058013916016],"type":"VEC3"},{"bufferView":32,"componentType":5126,"count":240,"max":[0.977506160736084,0.9920292496681213,0.9819533228874207],"min":[-0.9620818495750427,-0.9920292496681213,-0.958467423915863],"type":"VEC3"},{"bufferView":33,"componentType":5126,"count":240,"max":[1.0580698251724243,1],"min":[0,0],"type":"VEC2"},{"bufferView":34,"componentType":5126,"count":240,"max":[22.374523162841797,20.719703674316406,21.459197998046875],"min":[-23.486648559570312,-20.719703674316406,-25.54973602294922],"type":"VEC3"},{"bufferView":35,"componentType":5126,"count":240,"max":[0.9402524828910828,0.9970764517784119,0.9550121426582336],"min":[-0.9806751012802124,-0.9970764517784119,-0.9307892918586731],"type":"VEC3"},{"bufferView":36,"componentType":5126,"count":240,"max":[1.0580698251724243,1],"min":[0,0],"type":"VEC2"},{"bufferView":37,"componentType":5126,"count":240,"max":[28.5787353515625,23.477933883666992,23.958335876464844],"min":[-22.406126022338867,-23.477933883666992,-28.417444229125977],"type":"VEC3"},{"bufferView":38,"componentType":5126,"count":240,"max":[0.9140548706054688,0.9779725074768066,0.9941036701202393],"min":[-0.9980188012123108,-0.9779725074768066,-0.9323575496673584],"type":"VEC3"},{"bufferView":39,"componentType":5126,"count":240,"max":[1.0580698251724243,1],"min":[0,0],"type":"VEC2"},{"bufferView":40,"componentType":5126,"count":240,"max":[10.724640846252441,9.51636028289795,10.28132438659668],"min":[-9.595357894897461,-9.51636028289795,-10.531606674194336],"type":"VEC3"},{"bufferView":41,"componentType":5126,"count":240,"max":[0.9136377573013306,0.9901708960533142,0.9555116891860962],"min":[-0.9915671348571777,-0.9901708960533142,-0.9789835214614868],"type":"VEC3"},{"bufferView":42,"componentType":5126,"count":240,"max":[1.0580698251724243,1],"min":[0,0],"type":"VEC2"},{"bufferView":43,"componentType":5126,"count":240,"max":[15.557581901550293,15.160085678100586,14.60142993927002],"min":[-18.25122833251953,-15.160085678100586,-17.922473907470703],"type":"VEC3"},{"bufferView":44,"componentType":5126,"count":240,"max":[0.9858583807945251,0.9877060651779175,0.9988201856613159],"min":[-0.8995535373687744,-0.9877060651779175,-0.8723142743110657],"type":"VEC3"},{"bufferView":45,"componentType":5126,"count":240,"max":[1.0580698251724243,1],"min":[0,0],"type":"VEC2"},{"bufferView":46,"componentType":5126,"count":240,"max":[16.1743106842041,13.354496002197266,14.252357482910156],"min":[-14.354074478149414,-13.354496002197266,-15.807578086853027],"type":"VEC3"},{"bufferView":47,"componentType":5126,"count":240,"max":[0.901930034160614,0.9878402352333069,0.9729480147361755],"min":[-0.9803369045257568,-0.9878402352333069,-0.9521307945251465],"type":"VEC3"},{"bufferView":48,"componentType":5126,"count":240,"max":[1.0580698251724243,1],"min":[0,0],"type":"VEC2"},{"bufferView":49,"componentType":5126,"count":240,"max":[15.167479515075684,12.765605926513672,15.18310260772705],"min":[-12.676802635192871,-12.765605926513672,-13.67141342163086],"type":"VEC3"},{"bufferView":50,"componentType":5126,"count":240,"max":[0.9054809212684631,0.9953715801239014,0.9205016493797302],"min":[-0.9885410666465759,-0.9953715801239014,-0.9799057245254517],"type":"VEC3"},{"bufferView":51,"componentType":5126,"count":240,"max":[1.0580698251724243,1],"min":[0,0],"type":"VEC2"},{"bufferView":52,"componentType":5126,"count":240,"max":[15.532584190368652,13.609957695007324,15.123322486877441],"min":[-16.247190475463867,-13.609957695007324,-14.982134819030762],"type":"VEC3"},{"bufferView":53,"componentType":5126,"count":240,"max":[0.9612188339233398,0.999167799949646,0.9524913430213928],"min":[-0.8665412068367004,-0.999167799949646,-0.9626075625419617],"type":"VEC3"},{"bufferView":54,"componentType":5126,"count":240,"max":[1.0580698251724243,1],"min":[0,0],"type":"VEC2"},{"bufferView":55,"componentType":5126,"count":240,"max":[10.919100761413574,10.367688179016113,11.331228256225586],"min":[-11.224251747131348,-10.367688179016113,-10.388973236083984],"type":"VEC3"},{"bufferView":56,"componentType":5126,"count":240,"max":[0.9812315702438354,0.9782537221908569,0.9642755389213562],"min":[-0.9445072412490845,-0.9782537221908569,-0.9708840847015381],"type":"VEC3"},{"bufferView":57,"componentType":5126,"count":240,"max":[1.0580698251724243,1],"min":[0,0],"type":"VEC2"},{"bufferView":58,"componentType":5126,"count":240,"max":[10.013410568237305,9.007061958312988,9.51262378692627],"min":[-9.846809387207031,-9.007061958312988,-9.990337371826172],"type":"VEC3"},{"bufferView":59,"componentType":5126,"count":240,"max":[0.9702185988426208,0.9943444132804871,0.9949676990509033],"min":[-0.9402389526367188,-0.9943444132804871,-0.9777340292930603],"type":"VEC3"},{"bufferView":60,"componentType":5126,"count":240,"max":[1.0580698251724243,1],"min":[0,0],"type":"VEC2"},{"bufferView":61,"componentType":5126,"count":240,"max":[18.754638671875,16.913387298583984,18.105998992919922],"min":[-18.980960845947266,-16.913387298583984,-17.81940269470215],"type":"VEC3"},{"bufferView":62,"componentType":5126,"count":240,"max":[0.9699413776397705,0.9892760515213013,0.929938554763794],"min":[-0.9491293430328369,-0.9892760515213013,-0.9890005588531494],"type":"VEC3"},{"bufferView":63,"componentType":5126,"count":240,"max":[1.0580698251724243,1],"min":[0,0],"type":"VEC2"},{"bufferView":64,"componentType":5126,"count":240,"max":[23.897966384887695,21.111963272094727,22.268898010253906],"min":[-24.134044647216797,-21.111963272094727,-25.42710304260254],"type":"VEC3"},{"bufferView":65,"componentType":5126,"count":240,"max":[0.9408024549484253,0.9913051128387451,0.9952458143234253],"min":[-0.9636191725730896,-0.9913051128387451,-0.9204831719398499],"type":"VEC3"},{"bufferView":66,"componentType":5126,"count":240,"max":[1.0580698251724243,1],"min":[0,0],"type":"VEC2"},{"bufferView":67,"componentType":5126,"count":240,"max":[24.141740798950195,20.70941734313965,22.10713768005371],"min":[-21.60182762145996,-20.70941734313965,-23.58022689819336],"type":"VEC3"},{"bufferView":68,"componentType":5126,"count":240,"max":[0.9111276865005493,0.9879009127616882,0.9670363664627075],"min":[-0.9720286130905151,-0.9879009127616882,-0.9539728164672852],"type":"VEC3"},{"bufferView":69,"componentType":5126,"count":240,"max":[1.0580698251724243,1],"min":[0,0],"type":"VEC2"},{"bufferView":70,"componentType":5126,"count":240,"max":[10.3595609664917,9.602970123291016,11.083887100219727],"min":[-10.857351303100586,-9.602970123291016,-9.5552396774292],"type":"VEC3"},{"bufferView":71,"componentType":5126,"count":240,"max":[0.9209740161895752,0.9976500272750854,0.9648780822753906],"min":[-0.9613693952560425,-0.9976500272750854,-0.984076976776123],"type":"VEC3"},{"bufferView":72,"componentType":5126,"count":240,"max":[1.0580698251724243,1],"min":[0,0],"type":"VEC2"},{"bufferView":73,"componentType":5126,"count":240,"max":[14.726594924926758,13.575499534606934,14.004512786865234],"min":[-15.642914772033691,-13.575499534606934,-15.48118782043457],"type":"VEC3"},{"bufferView":74,"componentType":5126,"count":240,"max":[0.9597839117050171,0.9958642721176147,0.9605618715286255],"min":[-0.9378373622894287,-0.9958642721176147,-0.9511666893959045],"type":"VEC3"},{"bufferView":75,"componentType":5126,"count":240,"max":[1.0580698251724243,1],"min":[0,0],"type":"VEC2"},{"bufferView":76,"componentType":5126,"count":240,"max":[18.461116790771484,17.431041717529297,18.952306747436523],"min":[-18.21244239807129,-17.431041717529297,-18.739112854003906],"type":"VEC3"},{"bufferView":77,"componentType":5126,"count":240,"max":[0.9785088300704956,0.9967619776725769,0.9582141041755676],"min":[-0.9624166488647461,-0.9967619776725769,-0.9788839221000671],"type":"VEC3"},{"bufferView":78,"componentType":5126,"count":240,"max":[1.0580698251724243,1],"min":[0,0],"type":"VEC2"},{"bufferView":79,"componentType":5126,"count":240,"max":[26.14913558959961,25.345685958862305,30.3477840423584],"min":[-29.94580841064453,-25.345685958862305,-26.395620346069336],"type":"VEC3"},{"bufferView":80,"componentType":5126,"count":240,"max":[0.9816542267799377,0.9813066720962524,0.9197742342948914],"min":[-0.9103770852088928,-0.9813066720962524,-0.9795881509780884],"type":"VEC3"},{"bufferView":81,"componentType":5126,"count":240,"max":[1.0580698251724243,1],"min":[0,0],"type":"VEC2"},{"bufferView":82,"componentType":5126,"count":240,"max":[19.300397872924805,16.406333923339844,16.528512954711914],"min":[-16.89749526977539,-16.406333923339844,-19.35194206237793],"type":"VEC3"},{"bufferView":83,"componentType":5126,"count":240,"max":[0.9379939436912537,0.9903421401977539,0.9952588677406311],"min":[-0.9709996581077576,-0.9903421401977539,-0.9594731330871582],"type":"VEC3"},{"bufferView":84,"componentType":5126,"count":240,"max":[1.0580698251724243,1],"min":[0,0],"type":"VEC2"},{"bufferView":85,"componentType":5126,"count":240,"max":[9.468416213989258,8.298998832702637,8.618377685546875],"min":[-8.710503578186035,-8.298998832702637,-9.805092811584473],"type":"VEC3"},{"bufferView":86,"componentType":5126,"count":240,"max":[0.9350959658622742,0.9991438984870911,0.9659732580184937],"min":[-0.9851080179214478,-0.9991438984870911,-0.9486966133117676],"type":"VEC3"},{"bufferView":87,"componentType":5126,"count":240,"max":[1.0580698251724243,1],"min":[0,0],"type":"VEC2"},{"bufferView":88,"componentType":5126,"count":46,"max":[2.190216302871704,5.3105902671813965,2.246541738510132],"min":[-2.190216302871704,-5.3105902671813965,-2.024064064025879],"type":"VEC3"},{"bufferView":89,"componentType":5126,"count":46,"max":[0.9659233093261719,1,0.9907638430595398],"min":[-0.9659233093261719,-1,-0.892647385597229],"type":"VEC3"},{"bufferView":90,"componentType":5126,"count":46,"max":[1,1],"min":[0,0],"type":"VEC2"},{"bufferView":91,"componentType":5123,"count":84,"max":[45],"min":[0],"type":"SCALAR"},{"bufferView":92,"componentType":5126,"count":46,"max":[4.140671730041504,2.1379613876342773,4.247156620025635],"min":[-4.140671730041504,-2.1379613876342773,-3.8265559673309326],"type":"VEC3"},{"bufferView":93,"componentType":5126,"count":46,"max":[0.8201448321342468,1,0.841236412525177],"min":[-0.8201448321342468,-1,-0.7579277753829956],"type":"VEC3"},{"bufferView":94,"componentType":5126,"count":46,"max":[1,1],"min":[0,0],"type":"VEC2"},{"bufferView":95,"componentType":5123,"count":84,"max":[45],"min":[0],"type":"SCALAR"},{"bufferView":96,"componentType":5126,"count":46,"max":[5.069509983062744,7.388748645782471,5.1998820304870605],"min":[-5.069509983062744,-7.388748645782471,-4.684931755065918],"type":"VEC3"},{"bufferView":97,"componentType":5126,"count":46,"max":[0.9505992531776428,1,0.9750456809997559],"min":[-0.9505992531776428,-1,-0.8784857988357544],"type":"VEC3"},{"bufferView":98,"componentType":5126,"count":46,"max":[1,1],"min":[0,0],"type":"VEC2"},{"bufferView":99,"componentType":5123,"count":84,"max":[45],"min":[0],"type":"SCALAR"},{"bufferView":100,"componentType":5126,"count":46,"max":[3.0500130653381348,4.123970985412598,3.1284499168395996],"min":[-3.0500130653381348,-4.123970985412598,-2.818635940551758],"type":"VEC3"},{"bufferView":101,"componentType":5126,"count":46,"max":[0.9468283653259277,1,0.9711778163909912],"min":[-0.9468283653259277,-1,-0.8750010132789612],"type":"VEC3"},{"bufferView":102,"componentType":5126,"count":46,"max":[1,1],"min":[0,0],"type":"VEC2"},{"bufferView":103,"componentType":5123,"count":84,"max":[45],"min":[0],"type":"SCALAR"},{"bufferView":104,"componentType":5126,"count":46,"max":[4.347901344299316,4.3499064445495605,4.459715843200684],"min":[-4.347901344299316,-4.3499064445495605,-4.018064975738525],"type":"VEC3"},{"bufferView":105,"componentType":5126,"count":46,"max":[0.9253512024879456,1,0.9491482973098755],"min":[-0.9253512024879456,-1,-0.8551530838012695],"type":"VEC3"},{"bufferView":106,"componentType":5126,"count":46,"max":[1,1],"min":[0,0],"type":"VEC2"},{"bufferView":107,"componentType":5123,"count":84,"max":[45],"min":[0],"type":"SCALAR"},{"bufferView":108,"componentType":5126,"count":46,"max":[2.3745057582855225,7.067655563354492,2.435570478439331],"min":[-2.3745057582855225,-7.067655563354492,-2.19437313079834],"type":"VEC3"},{"bufferView":109,"componentType":5126,"count":46,"max":[0.9689245223999023,1,0.9938422441482544],"min":[-0.9689245223999023,-1,-0.8954209089279175],"type":"VEC3"},{"bufferView":110,"componentType":5126,"count":46,"max":[1,1],"min":[0,0],"type":"VEC2"},{"bufferView":111,"componentType":5123,"count":84,"max":[45],"min":[0],"type":"SCALAR"},{"bufferView":112,"componentType":5126,"count":46,"max":[3.3352465629577637,4.6719183921813965,3.421018600463867],"min":[-3.3352465629577637,-4.6719183921813965,-3.082231283187866],"type":"VEC3"},{"bufferView":113,"componentType":5126,"count":46,"max":[0.9486697912216187,1,0.9730665683746338],"min":[-0.9486697912216187,-1,-0.8767027258872986],"type":"VEC3"},{"bufferView":114,"componentType":5126,"count":46,"max":[1,1],"min":[0,0],"type":"VEC2"},{"bufferView":115,"componentType":5123,"count":84,"max":[45],"min":[0],"type":"SCALAR"},{"bufferView":116,"componentType":5126,"count":46,"max":[3.916463851928711,4.18649435043335,4.01718282699585],"min":[-3.916463851928711,-4.18649435043335,-3.619356870651245],"type":"VEC3"},{"bufferView":117,"componentType":5126,"count":46,"max":[0.9310922622680664,1,0.955036997795105],"min":[-0.9310922622680664,-1,-0.8604586124420166],"type":"VEC3"},{"bufferView":118,"componentType":5126,"count":46,"max":[1,1],"min":[0,0],"type":"VEC2"},{"bufferView":119,"componentType":5123,"count":84,"max":[45],"min":[0],"type":"SCALAR"},{"bufferView":120,"componentType":5126,"count":46,"max":[2.3671047687530518,3.223996877670288,2.4279792308807373],"min":[-2.3671047687530518,-3.223996877670288,-2.1875336170196533],"type":"VEC3"},{"bufferView":121,"componentType":5126,"count":46,"max":[0.947217583656311,1,0.9715770483016968],"min":[-0.947217583656311,-1,-0.8753606677055359],"type":"VEC3"},{"bufferView":122,"componentType":5126,"count":46,"max":[1,1],"min":[0,0],"type":"VEC2"},{"bufferView":123,"componentType":5123,"count":84,"max":[45],"min":[0],"type":"SCALAR"},{"bufferView":124,"componentType":5126,"count":46,"max":[2.0173327922821045,1.9572919607162476,2.0692124366760254],"min":[-2.0173327922821045,-1.9572919607162476,-1.8642958402633667],"type":"VEC3"},{"bufferView":125,"componentType":5126,"count":46,"max":[0.9224631786346436,1,0.9461860060691833],"min":[-0.9224631786346436,-1,-0.8524841666221619],"type":"VEC3"},{"bufferView":126,"componentType":5126,"count":46,"max":[1,1],"min":[0,0],"type":"VEC2"},{"bufferView":127,"componentType":5123,"count":84,"max":[45],"min":[0],"type":"SCALAR"},{"bufferView":128,"componentType":5126,"count":46,"max":[3.069896936416626,4.99014949798584,3.1488449573516846],"min":[-3.069896936416626,-4.99014949798584,-2.8370113372802734],"type":"VEC3"},{"bufferView":129,"componentType":5126,"count":46,"max":[0.9552253484725952,1,0.9797907471656799],"min":[-0.9552253484725952,-1,-0.8827609419822693],"type":"VEC3"},{"bufferView":130,"componentType":5126,"count":46,"max":[1,1],"min":[0,0],"type":"VEC2"},{"bufferView":131,"componentType":5123,"count":84,"max":[45],"min":[0],"type":"SCALAR"},{"bufferView":132,"componentType":5126,"count":46,"max":[3.36076021194458,2.014617919921875,3.447188377380371],"min":[-3.36076021194458,-2.014617919921875,-3.105809450149536],"type":"VEC3"},{"bufferView":133,"componentType":5126,"count":46,"max":[0.8529520630836487,1,0.8748873472213745],"min":[-0.8529520630836487,-1,-0.7882462739944458],"type":"VEC3"},{"bufferView":134,"componentType":5126,"count":46,"max":[1,1],"min":[0,0],"type":"VEC2"},{"bufferView":135,"componentType":5123,"count":84,"max":[45],"min":[0],"type":"SCALAR"},{"bufferView":136,"componentType":5126,"count":46,"max":[1.9359767436981201,7.14261531829834,1.9857640266418457],"min":[-1.9359767436981201,-7.14261531829834,-1.789111614227295],"type":"VEC3"},{"bufferView":137,"componentType":5126,"count":46,"max":[0.9710079431533813,1,0.9959791898727417],"min":[-0.9710079431533813,-1,-0.8973462581634521],"type":"VEC3"},{"bufferView":138,"componentType":5126,"count":46,"max":[1,1],"min":[0,0],"type":"VEC2"},{"bufferView":139,"componentType":5123,"count":84,"max":[45],"min":[0],"type":"SCALAR"},{"bufferView":140,"componentType":5126,"count":46,"max":[4.2639336585998535,2.999241590499878,4.373588562011719],"min":[-4.2639336585998535,-2.999241590499878,-3.940467357635498],"type":"VEC3"},{"bufferView":141,"componentType":5126,"count":46,"max":[0.8817274570465088,1,0.9044027328491211],"min":[-0.8817274570465088,-1,-0.814838707447052],"type":"VEC3"},{"bufferView":142,"componentType":5126,"count":46,"max":[1,1],"min":[0,0],"type":"VEC2"},{"bufferView":143,"componentType":5123,"count":84,"max":[45],"min":[0],"type":"SCALAR"},{"bufferView":144,"componentType":5126,"count":46,"max":[5.030267238616943,6.665304660797119,5.159629821777344],"min":[-5.030267238616943,-6.665304660797119,-4.648665904998779],"type":"VEC3"},{"bufferView":145,"componentType":5126,"count":46,"max":[0.9457198977470398,1,0.9700408577919006],"min":[-0.9457198977470398,-1,-0.8739765882492065],"type":"VEC3"},{"bufferView":146,"componentType":5126,"count":46,"max":[1,1],"min":[0,0],"type":"VEC2"},{"bufferView":147,"componentType":5123,"count":84,"max":[45],"min":[0],"type":"SCALAR"},{"bufferView":148,"componentType":5126,"count":46,"max":[5.011308193206787,5.556571960449219,5.140183448791504],"min":[-5.011308193206787,-5.556571960449219,-4.631145477294922],"type":"VEC3"},{"bufferView":149,"componentType":5126,"count":46,"max":[0.9339950680732727,1,0.9580144882202148],"min":[-0.9339950680732727,-1,-0.8631412386894226],"type":"VEC3"},{"bufferView":150,"componentType":5126,"count":46,"max":[1,1],"min":[0,0],"type":"VEC2"},{"bufferView":151,"componentType":5123,"count":84,"max":[45],"min":[0],"type":"SCALAR"},{"bufferView":152,"componentType":5126,"count":46,"max":[4.162868499755859,5.527234077453613,4.269924640655518],"min":[-4.162868499755859,-5.527234077453613,-3.847069025039673],"type":"VEC3"},{"bufferView":153,"componentType":5126,"count":46,"max":[0.9458335638046265,1,0.9701574444770813],"min":[-0.9458335638046265,-1,-0.8740816712379456],"type":"VEC3"},{"bufferView":154,"componentType":5126,"count":46,"max":[1,1],"min":[0,0],"type":"VEC2"},{"bufferView":155,"componentType":5123,"count":84,"max":[45],"min":[0],"type":"SCALAR"},{"bufferView":156,"componentType":5126,"count":46,"max":[1.565127968788147,3.685093641281128,1.6053781509399414],"min":[-1.565127968788147,-3.685093641281128,-1.446395754814148],"type":"VEC3"},{"bufferView":157,"componentType":5126,"count":46,"max":[0.9653864502906799,1,0.99021315574646],"min":[-0.9653864502906799,-1,-0.8921512365341187],"type":"VEC3"},{"bufferView":158,"componentType":5126,"count":46,"max":[1,1],"min":[0,0],"type":"VEC2"},{"bufferView":159,"componentType":5123,"count":84,"max":[45],"min":[0],"type":"SCALAR"},{"bufferView":160,"componentType":5126,"count":46,"max":[2.0371735095977783,2.205965995788574,2.0895631313323975],"min":[-2.0371735095977783,-2.205965995788574,-1.8826313018798828],"type":"VEC3"},{"bufferView":161,"componentType":5126,"count":46,"max":[0.9321385025978088,1,0.9561101794242859],"min":[-0.9321385025978088,-1,-0.861425518989563],"type":"VEC3"},{"bufferView":162,"componentType":5126,"count":46,"max":[1,1],"min":[0,0],"type":"VEC2"},{"bufferView":163,"componentType":5123,"count":84,"max":[45],"min":[0],"type":"SCALAR"},{"bufferView":164,"componentType":5126,"count":46,"max":[2.3852174282073975,7.234805107116699,2.4465577602386475],"min":[-2.3852174282073975,-7.234805107116699,-2.204272508621216],"type":"VEC3"},{"bufferView":165,"componentType":5126,"count":46,"max":[0.9691449403762817,1,0.9940683245658875],"min":[-0.9691449403762817,-1,-0.8956246376037598],"type":"VEC3"},{"bufferView":166,"componentType":5126,"count":46,"max":[1,1],"min":[0,0],"type":"VEC2"},{"bufferView":167,"componentType":5123,"count":84,"max":[45],"min":[0],"type":"SCALAR"},{"bufferView":168,"componentType":5126,"count":46,"max":[2.841658353805542,3.161044120788574,2.9147369861602783],"min":[-2.841658353805542,-3.161044120788574,-2.626087188720703],"type":"VEC3"},{"bufferView":169,"componentType":5126,"count":46,"max":[0.9342424273490906,1,0.9582682251930237],"min":[-0.9342424273490906,-1,-0.8633698225021362],"type":"VEC3"},{"bufferView":170,"componentType":5126,"count":46,"max":[1,1],"min":[0,0],"type":"VEC2"},{"bufferView":171,"componentType":5123,"count":84,"max":[45],"min":[0],"type":"SCALAR"},{"bufferView":172,"componentType":5126,"count":46,"max":[2.7370426654815674,5.955656051635742,2.8074309825897217],"min":[-2.7370426654815674,-5.955656051635742,-2.5294077396392822],"type":"VEC3"},{"bufferView":173,"componentType":5126,"count":46,"max":[0.9637840986251831,1,0.9885696172714233],"min":[-0.9637840986251831,-1,-0.8906704783439636],"type":"VEC3"},{"bufferView":174,"componentType":5126,"count":46,"max":[1,1],"min":[0,0],"type":"VEC2"},{"bufferView":175,"componentType":5123,"count":84,"max":[45],"min":[0],"type":"SCALAR"},{"bufferView":176,"componentType":5126,"count":46,"max":[4.084711074829102,3.8574330806732178,4.189756870269775],"min":[-4.084711074829102,-3.8574330806732178,-3.774840831756592],"type":"VEC3"},{"bufferView":177,"componentType":5126,"count":46,"max":[0.919791042804718,1,0.9434452056884766],"min":[-0.919791042804718,-1,-0.8500147461891174],"type":"VEC3"},{"bufferView":178,"componentType":5126,"count":46,"max":[1,1],"min":[0,0],"type":"VEC2"},{"bufferView":179,"componentType":5123,"count":84,"max":[45],"min":[0],"type":"SCALAR"},{"bufferView":180,"componentType":5126,"count":46,"max":[3.997567653656006,3.8959848880767822,4.100372791290283],"min":[-3.997567653656006,-3.8959848880767822,-3.694308042526245],"type":"VEC3"},{"bufferView":181,"componentType":5126,"count":46,"max":[0.9228938221931458,1,0.9466277956962585],"min":[-0.9228938221931458,-1,-0.8528821468353271],"type":"VEC3"},{"bufferView":182,"componentType":5126,"count":46,"max":[1,1],"min":[0,0],"type":"VEC2"},{"bufferView":183,"componentType":5123,"count":84,"max":[45],"min":[0],"type":"SCALAR"},{"bufferView":184,"componentType":5126,"count":46,"max":[1.6056078672409058,6.538954734802246,1.6468991041183472],"min":[-1.6056078672409058,-6.538954734802246,-1.4838048219680786],"type":"VEC3"},{"bufferView":185,"componentType":5126,"count":46,"max":[0.9717073440551758,1,0.9966965913772583],"min":[-0.9717073440551758,-1,-0.8979926109313965],"type":"VEC3"},{"bufferView":186,"componentType":5126,"count":46,"max":[1,1],"min":[0,0],"type":"VEC2"},{"bufferView":187,"componentType":5123,"count":84,"max":[45],"min":[0],"type":"SCALAR"},{"bufferView":188,"componentType":5126,"count":46,"max":[2.3824987411499023,6.550955772399902,2.4437692165374756],"min":[-2.3824987411499023,-6.550955772399902,-2.2017600536346436],"type":"VEC3"},{"bufferView":189,"componentType":5126,"count":46,"max":[0.9679041504859924,1,0.9927956461906433],"min":[-0.9679041504859924,-1,-0.8944779634475708],"type":"VEC3"},{"bufferView":190,"componentType":5126,"count":46,"max":[1,1],"min":[0,0],"type":"VEC2"},{"bufferView":191,"componentType":5123,"count":84,"max":[45],"min":[0],"type":"SCALAR"}],"materials":[{"pbrMetallicRoughness":{"baseColorFactor":[0.174647403645279,0.21586050010324417,0.2917706498067337,1],"metallicFactor":0.02,"roughnessFactor":0.9}},{"pbrMetallicRoughness":{"baseColorFactor":[0.11443537381770343,0.14126329113044458,0.1912016827303171,1],"metallicFactor":0.03,"roughnessFactor":0.84}},{"pbrMetallicRoughness":{"baseColorFactor":[0.11443537381770343,0.14126329113044458,0.1912016827303171,1],"metallicFactor":0.03,"roughnessFactor":0.84}},{"pbrMetallicRoughness":{"baseColorFactor":[0.11443537381770343,0.14126329113044458,0.1912016827303171,1],"metallicFactor":0.03,"roughnessFactor":0.84}},{"pbrMetallicRoughness":{"baseColorFactor":[0.11443537381770343,0.14126329113044458,0.1912016827303171,1],"metallicFactor":0.03,"roughnessFactor":0.84}},{"pbrMetallicRoughness":{"baseColorFactor":[0.11443537381770343,0.14126329113044458,0.1912016827303171,1],"metallicFactor":0.03,"roughnessFactor":0.84}},{"pbrMetallicRoughness":{"baseColorFactor":[0.11443537381770343,0.14126329113044458,0.1912016827303171,1],"metallicFactor":0.03,"roughnessFactor":0.84}},{"pbrMetallicRoughness":{"baseColorFactor":[0.11443537381770343,0.14126329113044458,0.1912016827303171,1],"metallicFactor":0.03,"roughnessFactor":0.84}},{"pbrMetallicRoughness":{"baseColorFactor":[0.11443537381770343,0.14126329113044458,0.1912016827303171,1],"metallicFactor":0.03,"roughnessFactor":0.84}},{"pbrMetallicRoughness":{"baseColorFactor":[0.11443537381770343,0.14126329113044458,0.1912016827303171,1],"metallicFactor":0.03,"roughnessFactor":0.84}},{"pbrMetallicRoughness":{"baseColorFactor":[0.11443537381770343,0.14126329113044458,0.1912016827303171,1],"metallicFactor":0.03,"roughnessFactor":0.84}},{"pbrMetallicRoughness":{"baseColorFactor":[0.11443537381770343,0.14126329113044458,0.1912016827303171,1],"metallicFactor":0.03,"roughnessFactor":0.84}},{"pbrMetallicRoughness":{"baseColorFactor":[0.11443537381770343,0.14126329113044458,0.1912016827303171,1],"metallicFactor":0.03,"roughnessFactor":0.84}},{"pbrMetallicRoughness":{"baseColorFactor":[0.11443537381770343,0.14126329113044458,0.1912016827303171,1],"metallicFactor":0.03,"roughnessFactor":0.84}},{"pbrMetallicRoughness":{"baseColorFactor":[0.11443537381770343,0.14126329113044458,0.1912016827303171,1],"metallicFactor":0.03,"roughnessFactor":0.84}},{"pbrMetallicRoughness":{"baseColorFactor":[0.11443537381770343,0.14126329113044458,0.1912016827303171,1],"metallicFactor":0.03,"roughnessFactor":0.84}},{"pbrMetallicRoughness":{"baseColorFactor":[0.11443537381770343,0.14126329113044458,0.1912016827303171,1],"metallicFactor":0.03,"roughnessFactor":0.84}},{"pbrMetallicRoughness":{"baseColorFactor":[0.11443537381770343,0.14126329113044458,0.1912016827303171,1],"metallicFactor":0.03,"roughnessFactor":0.84}},{"pbrMetallicRoughness":{"baseColorFactor":[0.11443537381770343,0.14126329113044458,0.1912016827303171,1],"metallicFactor":0.03,"roughnessFactor":0.84}},{"pbrMetallicRoughness":{"baseColorFactor":[0.11443537381770343,0.14126329113044458,0.1912016827303171,1],"metallicFactor":0.03,"roughnessFactor":0.84}},{"pbrMetallicRoughness":{"baseColorFactor":[0.11443537381770343,0.14126329113044458,0.1912016827303171,1],"metallicFactor":0.03,"roughnessFactor":0.84}},{"pbrMetallicRoughness":{"baseColorFactor":[0.11443537381770343,0.14126329113044458,0.1912016827303171,1],"metallicFactor":0.03,"roughnessFactor":0.84}},{"pbrMetallicRoughness":{"baseColorFactor":[0.11443537381770343,0.14126329113044458,0.1912016827303171,1],"metallicFactor":0.03,"roughnessFactor":0.84}},{"pbrMetallicRoughness":{"baseColorFactor":[0.11443537381770343,0.14126329113044458,0.1912016827303171,1],"metallicFactor":0.03,"roughnessFactor":0.84}},{"pbrMetallicRoughness":{"baseColorFactor":[0.11443537381770343,0.14126329113044458,0.1912016827303171,1],"metallicFactor":0.03,"roughnessFactor":0.84}},{"pbrMetallicRoughness":{"baseColorFactor":[0.11443537381770343,0.14126329113044458,0.1912016827303171,1],"metallicFactor":0.03,"roughnessFactor":0.84}},{"pbrMetallicRoughness":{"baseColorFactor":[0.11443537381770343,0.14126329113044458,0.1912016827303171,1],"metallicFactor":0.03,"roughnessFactor":0.84}},{"pbrMetallicRoughness":{"baseColorFactor":[0.11443537381770343,0.14126329113044458,0.1912016827303171,1],"metallicFactor":0.03,"roughnessFactor":0.84}},{"pbrMetallicRoughness":{"baseColorFactor":[0.11443537381770343,0.14126329113044458,0.1912016827303171,1],"metallicFactor":0.03,"roughnessFactor":0.84}},{"pbrMetallicRoughness":{"baseColorFactor":[0.12213877222015301,0.158960835050774,0.20507873637973145,1],"metallicFactor":0.05,"roughnessFactor":0.75}},{"pbrMetallicRoughness":{"baseColorFactor":[0.12213877222015301,0.158960835050774,0.20507873637973145,1],"metallicFactor":0.05,"roughnessFactor":0.75}},{"pbrMetallicRoughness":{"baseColorFactor":[0.12213877222015301,0.158960835050774,0.20507873637973145,1],"metallicFactor":0.05,"roughnessFactor":0.75}},{"pbrMetallicRoughness":{"baseColorFactor":[0.12213877222015301,0.158960835050774,0.20507873637973145,1],"metallicFactor":0.05,"roughnessFactor":0.75}},{"pbrMetallicRoughness":{"baseColorFactor":[0.12213877222015301,0.158960835050774,0.20507873637973145,1],"metallicFactor":0.05,"roughnessFactor":0.75}},{"pbrMetallicRoughness":{"baseColorFactor":[0.12213877222015301,0.158960835050774,0.20507873637973145,1],"metallicFactor":0.05,"roughnessFactor":0.75}},{"pbrMetallicRoughness":{"baseColorFactor":[0.12213877222015301,0.158960835050774,0.20507873637973145,1],"metallicFactor":0.05,"roughnessFactor":0.75}},{"pbrMetallicRoughness":{"baseColorFactor":[0.12213877222015301,0.158960835050774,0.20507873637973145,1],"metallicFactor":0.05,"roughnessFactor":0.75}},{"pbrMetallicRoughness":{"baseColorFactor":[0.12213877222015301,0.158960835050774,0.20507873637973145,1],"metallicFactor":0.05,"roughnessFactor":0.75}},{"pbrMetallicRoughness":{"baseColorFactor":[0.12213877222015301,0.158960835050774,0.20507873637973145,1],"metallicFactor":0.05,"roughnessFactor":0.75}},{"pbrMetallicRoughness":{"baseColorFactor":[0.12213877222015301,0.158960835050774,0.20507873637973145,1],"metallicFactor":0.05,"roughnessFactor":0.75}},{"pbrMetallicRoughness":{"baseColorFactor":[0.12213877222015301,0.158960835050774,0.20507873637973145,1],"metallicFactor":0.05,"roughnessFactor":0.75}},{"pbrMetallicRoughness":{"baseColorFactor":[0.12213877222015301,0.158960835050774,0.20507873637973145,1],"metallicFactor":0.05,"roughnessFactor":0.75}},{"pbrMetallicRoughness":{"baseColorFactor":[0.12213877222015301,0.158960835050774,0.20507873637973145,1],"metallicFactor":0.05,"roughnessFactor":0.75}},{"pbrMetallicRoughness":{"baseColorFactor":[0.12213877222015301,0.158960835050774,0.20507873637973145,1],"metallicFactor":0.05,"roughnessFactor":0.75}},{"pbrMetallicRoughness":{"baseColorFactor":[0.12213877222015301,0.158960835050774,0.20507873637973145,1],"metallicFactor":0.05,"roughnessFactor":0.75}},{"pbrMetallicRoughness":{"baseColorFactor":[0.12213877222015301,0.158960835050774,0.20507873637973145,1],"metallicFactor":0.05,"roughnessFactor":0.75}},{"pbrMetallicRoughness":{"baseColorFactor":[0.12213877222015301,0.158960835050774,0.20507873637973145,1],"metallicFactor":0.05,"roughnessFactor":0.75}},{"pbrMetallicRoughness":{"baseColorFactor":[0.12213877222015301,0.158960835050774,0.20507873637973145,1],"metallicFactor":0.05,"roughnessFactor":0.75}},{"pbrMetallicRoughness":{"baseColorFactor":[0.12213877222015301,0.158960835050774,0.20507873637973145,1],"metallicFactor":0.05,"roughnessFactor":0.75}},{"pbrMetallicRoughness":{"baseColorFactor":[0.12213877222015301,0.158960835050774,0.20507873637973145,1],"metallicFactor":0.05,"roughnessFactor":0.75}},{"pbrMetallicRoughness":{"baseColorFactor":[0.12213877222015301,0.158960835050774,0.20507873637973145,1],"metallicFactor":0.05,"roughnessFactor":0.75}},{"pbrMetallicRoughness":{"baseColorFactor":[0.12213877222015301,0.158960835050774,0.20507873637973145,1],"metallicFactor":0.05,"roughnessFactor":0.75}},{"pbrMetallicRoughness":{"baseColorFactor":[0.12213877222015301,0.158960835050774,0.20507873637973145,1],"metallicFactor":0.05,"roughnessFactor":0.75}},{"pbrMetallicRoughness":{"baseColorFactor":[0.12213877222015301,0.158960835050774,0.20507873637973145,1],"metallicFactor":0.05,"roughnessFactor":0.75}},{"pbrMetallicRoughness":{"baseColorFactor":[0.12213877222015301,0.158960835050774,0.20507873637973145,1],"metallicFactor":0.05,"roughnessFactor":0.75}}],"meshes":[{"primitives":[{"mode":4,"attributes":{"POSITION":0,"NORMAL":1,"TEXCOORD_0":2},"indices":3,"material":0}]},{"primitives":[{"mode":4,"attributes":{"POSITION":4,"NORMAL":5,"TEXCOORD_0":6},"material":1}]},{"primitives":[{"mode":4,"attributes":{"POSITION":7,"NORMAL":8,"TEXCOORD_0":9},"material":2}]},{"primitives":[{"mode":4,"attributes":{"POSITION":10,"NORMAL":11,"TEXCOORD_0":12},"material":3}]},{"primitives":[{"mode":4,"attributes":{"POSITION":13,"NORMAL":14,"TEXCOORD_0":15},"material":4}]},{"primitives":[{"mode":4,"attributes":{"POSITION":16,"NORMAL":17,"TEXCOORD_0":18},"material":5}]},{"primitives":[{"mode":4,"attributes":{"POSITION":19,"NORMAL":20,"TEXCOORD_0":21},"material":6}]},{"primitives":[{"mode":4,"attributes":{"POSITION":22,"NORMAL":23,"TEXCOORD_0":24},"material":7}]},{"primitives":[{"mode":4,"attributes":{"POSITION":25,"NORMAL":26,"TEXCOORD_0":27},"material":8}]},{"primitives":[{"mode":4,"attributes":{"POSITION":28,"NORMAL":29,"TEXCOORD_0":30},"material":9}]},{"primitives":[{"mode":4,"attributes":{"POSITION":31,"NORMAL":32,"TEXCOORD_0":33},"material":10}]},{"primitives":[{"mode":4,"attributes":{"POSITION":34,"NORMAL":35,"TEXCOORD_0":36},"material":11}]},{"primitives":[{"mode":4,"attributes":{"POSITION":37,"NORMAL":38,"TEXCOORD_0":39},"material":12}]},{"primitives":[{"mode":4,"attributes":{"POSITION":40,"NORMAL":41,"TEXCOORD_0":42},"material":13}]},{"primitives":[{"mode":4,"attributes":{"POSITION":43,"NORMAL":44,"TEXCOORD_0":45},"material":14}]},{"primitives":[{"mode":4,"attributes":{"POSITION":46,"NORMAL":47,"TEXCOORD_0":48},"material":15}]},{"primitives":[{"mode":4,"attributes":{"POSITION":49,"NORMAL":50,"TEXCOORD_0":51},"material":16}]},{"primitives":[{"mode":4,"attributes":{"POSITION":52,"NORMAL":53,"TEXCOORD_0":54},"material":17}]},{"primitives":[{"mode":4,"attributes":{"POSITION":55,"NORMAL":56,"TEXCOORD_0":57},"material":18}]},{"primitives":[{"mode":4,"attributes":{"POSITION":58,"NORMAL":59,"TEXCOORD_0":60},"material":19}]},{"primitives":[{"mode":4,"attributes":{"POSITION":61,"NORMAL":62,"TEXCOORD_0":63},"material":20}]},{"primitives":[{"mode":4,"attributes":{"POSITION":64,"NORMAL":65,"TEXCOORD_0":66},"material":21}]},{"primitives":[{"mode":4,"attributes":{"POSITION":67,"NORMAL":68,"TEXCOORD_0":69},"material":22}]},{"primitives":[{"mode":4,"attributes":{"POSITION":70,"NORMAL":71,"TEXCOORD_0":72},"material":23}]},{"primitives":[{"mode":4,"attributes":{"POSITION":73,"NORMAL":74,"TEXCOORD_0":75},"material":24}]},{"primitives":[{"mode":4,"attributes":{"POSITION":76,"NORMAL":77,"TEXCOORD_0":78},"material":25}]},{"primitives":[{"mode":4,"attributes":{"POSITION":79,"NORMAL":80,"TEXCOORD_0":81},"material":26}]},{"primitives":[{"mode":4,"attributes":{"POSITION":82,"NORMAL":83,"TEXCOORD_0":84},"material":27}]},{"primitives":[{"mode":4,"attributes":{"POSITION":85,"NORMAL":86,"TEXCOORD_0":87},"material":28}]},{"primitives":[{"mode":4,"attributes":{"POSITION":88,"NORMAL":89,"TEXCOORD_0":90},"indices":91,"material":29}]},{"primitives":[{"mode":4,"attributes":{"POSITION":92,"NORMAL":93,"TEXCOORD_0":94},"indices":95,"material":30}]},{"primitives":[{"mode":4,"attributes":{"POSITION":96,"NORMAL":97,"TEXCOORD_0":98},"indices":99,"material":31}]},{"primitives":[{"mode":4,"attributes":{"POSITION":100,"NORMAL":101,"TEXCOORD_0":102},"indices":103,"material":32}]},{"primitives":[{"mode":4,"attributes":{"POSITION":104,"NORMAL":105,"TEXCOORD_0":106},"indices":107,"material":33}]},{"primitives":[{"mode":4,"attributes":{"POSITION":108,"NORMAL":109,"TEXCOORD_0":110},"indices":111,"material":34}]},{"primitives":[{"mode":4,"attributes":{"POSITION":112,"NORMAL":113,"TEXCOORD_0":114},"indices":115,"material":35}]},{"primitives":[{"mode":4,"attributes":{"POSITION":116,"NORMAL":117,"TEXCOORD_0":118},"indices":119,"material":36}]},{"primitives":[{"mode":4,"attributes":{"POSITION":120,"NORMAL":121,"TEXCOORD_0":122},"indices":123,"material":37}]},{"primitives":[{"mode":4,"attributes":{"POSITION":124,"NORMAL":125,"TEXCOORD_0":126},"indices":127,"material":38}]},{"primitives":[{"mode":4,"attributes":{"POSITION":128,"NORMAL":129,"TEXCOORD_0":130},"indices":131,"material":39}]},{"primitives":[{"mode":4,"attributes":{"POSITION":132,"NORMAL":133,"TEXCOORD_0":134},"indices":135,"material":40}]},{"primitives":[{"mode":4,"attributes":{"POSITION":136,"NORMAL":137,"TEXCOORD_0":138},"indices":139,"material":41}]},{"primitives":[{"mode":4,"attributes":{"POSITION":140,"NORMAL":141,"TEXCOORD_0":142},"indices":143,"material":42}]},{"primitives":[{"mode":4,"attributes":{"POSITION":144,"NORMAL":145,"TEXCOORD_0":146},"indices":147,"material":43}]},{"primitives":[{"mode":4,"attributes":{"POSITION":148,"NORMAL":149,"TEXCOORD_0":150},"indices":151,"material":44}]},{"primitives":[{"mode":4,"attributes":{"POSITION":152,"NORMAL":153,"TEXCOORD_0":154},"indices":155,"material":45}]},{"primitives":[{"mode":4,"attributes":{"POSITION":156,"NORMAL":157,"TEXCOORD_0":158},"indices":159,"material":46}]},{"primitives":[{"mode":4,"attributes":{"POSITION":160,"NORMAL":161,"TEXCOORD_0":162},"indices":163,"material":47}]},{"primitives":[{"mode":4,"attributes":{"POSITION":164,"NORMAL":165,"TEXCOORD_0":166},"indices":167,"material":48}]},{"primitives":[{"mode":4,"attributes":{"POSITION":168,"NORMAL":169,"TEXCOORD_0":170},"indices":171,"material":49}]},{"primitives":[{"mode":4,"attributes":{"POSITION":172,"NORMAL":173,"TEXCOORD_0":174},"indices":175,"material":50}]},{"primitives":[{"mode":4,"attributes":{"POSITION":176,"NORMAL":177,"TEXCOORD_0":178},"indices":179,"material":51}]},{"primitives":[{"mode":4,"attributes":{"POSITION":180,"NORMAL":181,"TEXCOORD_0":182},"indices":183,"material":52}]},{"primitives":[{"mode":4,"attributes":{"POSITION":184,"NORMAL":185,"TEXCOORD_0":186},"indices":187,"material":53}]},{"primitives":[{"mode":4,"attributes":{"POSITION":188,"NORMAL":189,"TEXCOORD_0":190},"indices":191,"material":54}]}],"extensionsUsed":["KHR_lights_punctual"]}